{"glyphs":{"0":{"ha":1010,"x_min":72,"x_max":938,"o":"m 261 0 q 185 15 219 0 q 125 56 150 29 q 86 117 100 82 q 72 192 72 151 l 72 821 q 86 896 72 861 q 125 956 100 931 q 185 995 150 981 q 261 1010 219 1010 l 746 1010 q 823 995 788 1010 q 883 956 858 981 q 923 896 908 931 q 938 821 938 861 l 938 190 q 923 115 938 150 q 883 55 908 81 q 822 15 857 29 q 746 0 788 0 l 261 0 m 554 269 q 599 285 582 269 q 615 331 615 300 l 615 685 q 597 727 615 713 q 549 742 578 742 l 454 742 q 394 685 394 742 l 394 331 q 453 269 394 269 l 554 269 z "},"1":{"ha":557,"x_min":28,"x_max":483,"o":"m 138 1010 l 483 1010 l 483 0 l 151 0 l 151 740 l 28 740 l 138 1010 z "},"2":{"ha":926,"x_min":56,"x_max":871,"o":"m 56 197 q 72 336 56 278 q 115 437 88 394 q 177 506 142 479 q 251 551 213 533 q 327 581 289 571 q 401 599 365 592 q 447 608 424 603 q 491 624 471 614 q 524 651 511 635 q 536 694 536 667 q 530 725 536 710 q 500 740 524 740 l 86 740 l 139 1010 l 688 1010 q 825 961 779 1010 q 871 835 871 913 l 871 644 q 831 509 868 568 q 717 414 794 450 q 618 378 671 392 q 519 349 565 364 q 444 313 474 333 q 414 258 414 293 l 867 258 l 811 0 l 56 0 l 56 197 z "},"3":{"ha":926,"x_min":49,"x_max":875,"o":"m 49 269 l 468 269 q 497 276 493 269 q 501 299 501 283 l 501 432 q 497 453 501 449 q 479 457 493 457 l 154 457 l 360 740 l 69 740 l 131 1010 l 875 1010 l 601 646 q 701 640 656 647 q 779 612 747 633 q 829 551 811 590 q 847 449 847 511 l 847 156 q 833 84 847 114 q 795 35 819 54 q 739 8 771 17 q 669 0 707 0 l 104 0 l 49 269 z "},"4":{"ha":1038,"x_min":69,"x_max":975,"o":"m 553 188 l 69 188 l 69 449 l 133 581 l 133 1010 l 432 1010 l 432 581 l 394 467 l 553 467 l 553 1010 l 863 1010 l 863 467 l 975 467 l 975 188 l 863 188 l 863 0 l 553 0 l 553 188 z "},"5":{"ha":940,"x_min":72,"x_max":871,"o":"m 849 740 l 389 740 l 389 624 l 663 624 q 822 577 772 624 q 871 417 871 531 l 871 211 q 856 110 871 150 q 809 45 840 69 q 731 10 778 21 q 624 0 685 0 l 129 0 l 72 269 l 503 269 q 519 289 519 269 l 519 371 q 503 390 519 390 l 72 390 l 72 1010 l 793 1010 l 849 740 z "},"6":{"ha":983,"x_min":72,"x_max":911,"o":"m 835 1010 l 890 740 l 446 740 q 408 732 415 740 q 400 704 400 724 l 400 636 l 736 636 q 862 597 813 636 q 911 465 911 558 l 911 168 q 863 44 911 89 q 739 0 814 0 l 251 0 q 164 13 199 0 q 109 49 129 26 q 81 103 89 72 q 72 167 72 133 l 72 829 q 83 900 72 867 q 119 958 94 933 q 180 996 143 982 q 267 1010 217 1010 l 835 1010 m 440 425 q 402 415 413 425 q 392 376 392 404 l 392 299 q 401 258 392 269 q 439 247 411 247 l 543 247 q 582 258 572 247 q 592 299 592 269 l 592 376 q 581 415 592 404 q 543 425 571 425 l 440 425 z "},"7":{"ha":928,"x_min":42,"x_max":893,"o":"m 97 1010 l 893 1010 l 556 0 l 178 0 l 446 740 l 42 740 l 97 1010 z "},"8":{"ha":1022,"x_min":69,"x_max":953,"o":"m 253 0 q 185 10 218 0 q 126 42 151 21 q 85 93 100 63 q 69 164 69 124 l 69 446 q 80 485 69 468 q 104 513 90 501 q 133 531 118 524 q 157 543 147 539 q 117 577 138 553 q 97 635 97 601 l 97 839 q 111 904 97 874 q 149 958 125 935 q 203 996 172 982 q 271 1010 235 1010 l 751 1010 q 817 996 786 1010 q 872 958 849 982 q 908 904 894 935 q 922 839 922 874 l 922 635 q 903 577 922 601 q 864 543 885 553 q 888 531 874 539 q 917 513 903 524 q 942 485 932 501 q 953 446 953 468 l 953 164 q 937 93 953 124 q 895 42 921 63 q 836 10 869 21 q 768 0 803 0 l 253 0 m 440 232 l 581 232 q 615 248 600 232 q 629 283 629 264 l 629 354 q 615 389 629 374 q 581 404 600 404 l 440 404 q 406 389 421 404 q 392 354 392 374 l 392 283 q 406 248 392 264 q 440 232 421 232 m 450 636 l 571 636 q 602 649 588 636 q 617 682 617 663 l 617 744 q 602 777 617 764 q 571 790 588 790 l 450 790 q 419 777 433 790 q 404 744 404 764 l 404 682 q 419 649 404 663 q 450 636 433 636 z "},"9":{"ha":985,"x_min":72,"x_max":913,"o":"m 142 0 l 86 269 l 528 269 q 566 278 558 269 q 574 306 574 286 l 574 374 l 247 374 q 178 383 210 374 q 122 412 146 392 q 85 465 99 432 q 72 544 72 497 l 72 842 q 119 963 72 917 q 240 1010 165 1010 l 732 1010 q 821 997 786 1010 q 876 960 856 983 q 904 907 896 938 q 913 843 913 876 l 913 181 q 902 112 913 144 q 869 54 892 79 q 809 15 846 29 q 718 0 772 0 l 142 0 m 535 585 q 573 595 563 585 q 583 633 583 606 l 583 711 q 574 751 583 740 q 536 763 564 763 l 438 763 q 399 751 408 763 q 389 711 389 740 l 389 633 q 399 595 389 606 q 438 585 410 585 l 535 585 z "}," ":{"ha":313,"x_min":0,"x_max":0,"o":""},"!":{"ha":483,"x_min":63,"x_max":421,"o":"m 63 1010 l 421 1010 l 351 319 l 131 319 l 63 1010 m 242 -18 q 174 -12 204 -18 q 125 8 144 -7 q 95 51 106 24 q 85 121 85 78 q 95 190 85 164 q 125 232 106 217 q 174 253 144 247 q 242 258 204 258 q 308 253 279 258 q 357 232 338 247 q 387 190 376 217 q 397 121 397 164 q 387 51 397 78 q 357 8 376 24 q 308 -12 338 -7 q 242 -18 279 -18 z "},"\"":{"ha":701,"x_min":63,"x_max":639,"o":"m 63 1024 l 311 1024 l 275 531 l 93 531 l 63 1024 m 389 1024 l 639 1024 l 603 531 l 421 531 l 389 1024 z "},"#":{"ha":1115,"x_min":72,"x_max":1043,"o":"m 269 271 l 72 271 l 101 449 l 297 449 l 317 557 l 111 557 l 142 733 l 347 733 l 394 1010 l 568 1010 l 522 733 l 669 733 l 718 1010 l 892 1010 l 846 733 l 1043 733 l 1013 557 l 818 557 l 799 449 l 1004 449 l 972 271 l 768 271 l 721 0 l 544 0 l 592 271 l 444 271 l 397 0 l 222 0 l 269 271 m 622 449 l 640 557 l 492 557 l 474 449 l 622 449 z "},"$":{"ha":663,"x_min":63,"x_max":600,"o":"m 246 86 l 147 86 l 94 293 l 229 293 q 273 301 258 293 q 291 321 288 308 q 288 349 294 333 q 268 379 282 364 q 210 439 244 406 q 142 512 175 472 q 86 597 110 551 q 63 694 63 643 q 71 760 63 728 q 101 822 79 793 q 160 872 122 850 q 258 903 199 893 l 258 1010 l 433 1010 l 433 910 l 521 910 l 575 701 l 439 701 q 392 697 411 701 q 365 682 372 693 q 367 651 358 671 q 406 603 375 632 q 459 545 426 579 q 523 472 492 511 q 577 388 554 432 q 600 300 600 343 q 592 236 600 268 q 563 176 583 204 q 508 125 543 147 q 419 93 474 103 l 419 0 l 246 0 l 246 86 z "},"%":{"ha":1081,"x_min":63,"x_max":1018,"o":"m 269 613 q 189 628 226 613 q 123 672 151 644 q 78 738 94 700 q 63 818 63 775 q 78 899 63 861 q 122 964 94 936 q 188 1008 150 992 q 268 1024 225 1024 q 349 1008 311 1024 q 414 964 386 992 q 458 899 442 936 q 474 818 474 861 q 458 738 474 775 q 414 672 442 700 q 349 628 386 644 q 269 613 313 613 m 268 753 q 315 771 296 753 q 335 817 335 789 q 316 865 335 844 q 269 885 297 885 q 222 866 242 885 q 201 819 201 847 q 221 772 201 792 q 268 753 240 753 m 269 0 l 642 1010 l 801 1010 l 439 0 l 269 0 m 814 -17 q 733 -1 771 -17 q 667 43 696 15 q 622 108 639 71 q 606 189 606 146 q 622 269 606 232 q 666 335 638 307 q 732 378 694 363 q 813 394 769 394 q 892 378 854 394 q 958 335 929 363 q 1002 269 986 307 q 1018 189 1018 232 q 1002 110 1018 147 q 958 44 986 72 q 892 -1 929 15 q 814 -17 856 -17 m 813 125 q 858 143 839 125 q 878 188 876 161 q 860 235 879 215 q 814 256 842 254 q 766 238 786 257 q 746 190 746 218 q 765 144 746 163 q 813 125 785 125 z "},"&":{"ha":1217,"x_min":69,"x_max":1217,"o":"m 244 0 q 117 45 165 0 q 69 174 69 90 l 69 518 q 137 660 69 610 q 313 710 204 710 l 249 793 q 212 867 219 829 q 216 938 204 906 q 259 990 228 969 q 338 1010 290 1010 l 975 1010 l 1033 740 l 664 740 l 850 490 l 864 504 q 882 538 879 519 q 885 576 885 556 l 885 613 l 1153 613 l 1153 518 q 1153 483 1153 501 q 1149 444 1153 464 q 1138 404 1146 425 q 1111 364 1129 383 l 1013 267 l 1217 0 l 838 0 l 790 64 l 725 0 l 244 0 m 594 251 l 631 283 l 454 519 l 421 519 q 393 512 401 519 q 385 482 385 504 l 385 286 q 394 258 385 265 q 421 251 403 251 l 594 251 z "},"'":{"ha":375,"x_min":63,"x_max":313,"o":"m 63 1024 l 313 1024 l 276 531 l 94 531 l 63 1024 z "},"(":{"ha":481,"x_min":69,"x_max":494,"o":"m 457 -158 q 292 -137 364 -158 q 170 -66 219 -115 q 95 63 121 -17 q 69 257 69 142 l 69 753 q 95 947 69 868 q 170 1076 121 1026 q 292 1147 219 1125 q 457 1168 364 1168 q 476 1167 467 1168 q 494 1167 486 1167 l 494 1058 q 406 1049 432 1061 q 381 990 381 1038 l 381 19 q 406 -40 381 -28 q 494 -49 432 -51 l 494 -157 q 476 -158 486 -157 q 457 -158 467 -158 z "},")":{"ha":481,"x_min":-14,"x_max":411,"o":"m 24 -158 q 4 -158 14 -158 q -14 -157 -6 -157 l -14 -49 q 74 -40 49 -51 q 100 19 100 -28 l 100 990 q 74 1049 100 1038 q -14 1058 49 1061 l -14 1167 q 4 1167 -6 1167 q 24 1168 14 1168 q 189 1147 117 1168 q 310 1076 261 1125 q 385 947 360 1026 q 411 753 411 868 l 411 257 q 385 63 411 142 q 310 -66 360 -17 q 189 -137 261 -115 q 24 -158 117 -158 z "},"*":{"ha":725,"x_min":63,"x_max":654,"o":"m 306 664 l 161 510 l 63 690 l 257 743 l 63 797 l 161 976 l 306 825 l 257 1033 l 460 1033 l 411 825 l 554 976 l 654 797 l 461 743 l 654 690 l 556 510 l 411 664 l 460 454 l 257 454 l 306 664 z "},"+":{"ha":908,"x_min":65,"x_max":850,"o":"m 339 394 l 65 394 l 65 618 l 339 618 l 339 899 l 575 899 l 575 618 l 850 618 l 850 394 l 575 394 l 575 113 l 339 113 l 339 394 z "},",":{"ha":450,"x_min":63,"x_max":388,"o":"m 201 -131 q 211 -106 206 -121 q 221 -74 217 -90 q 228 -44 225 -58 q 231 -19 231 -29 q 159 -13 190 -19 q 106 10 128 -7 q 74 57 85 26 q 63 138 63 88 q 97 242 63 203 q 222 281 132 281 q 351 245 314 281 q 388 131 388 210 q 378 58 388 97 q 355 -19 368 18 q 326 -85 342 -56 q 300 -131 311 -115 l 201 -131 l 201 -131 z "},"-":{"ha":567,"x_min":72,"x_max":494,"o":"m 72 589 l 494 589 l 494 336 l 72 336 l 72 589 z "},".":{"ha":449,"x_min":63,"x_max":386,"o":"m 225 -19 q 155 -13 185 -19 q 104 10 125 -7 q 73 56 83 26 q 63 129 63 85 q 104 249 63 218 q 225 281 146 281 q 345 249 304 281 q 386 129 386 218 q 376 56 386 85 q 344 10 365 26 q 294 -13 324 -7 q 225 -19 264 -19 z "},"/":{"ha":494,"x_min":35,"x_max":460,"o":"m 232 1024 l 460 1024 l 263 -14 l 35 -14 l 232 1024 z "},":":{"ha":464,"x_min":71,"x_max":394,"o":"m 233 454 q 163 460 193 454 q 113 483 133 467 q 81 529 92 500 q 71 603 71 558 q 113 723 71 692 q 233 754 154 754 q 353 723 313 754 q 394 603 394 692 q 384 529 394 558 q 353 483 374 500 q 302 460 332 467 q 233 454 272 454 m 233 -19 q 163 -13 193 -19 q 113 10 133 -7 q 81 56 92 26 q 71 129 71 85 q 113 249 71 218 q 233 281 154 281 q 353 249 313 281 q 394 129 394 218 q 384 56 394 85 q 353 10 374 26 q 302 -13 332 -7 q 233 -19 272 -19 z "},";":{"ha":464,"x_min":69,"x_max":394,"o":"m 208 -131 q 218 -106 213 -121 q 228 -74 224 -90 q 235 -44 232 -58 q 238 -19 238 -29 q 166 -13 197 -19 q 113 10 135 -7 q 81 57 92 26 q 69 138 69 88 q 104 242 69 203 q 229 281 139 281 q 358 245 321 281 q 394 131 394 210 q 385 58 394 97 q 362 -19 375 18 q 333 -85 349 -56 q 307 -131 318 -115 l 208 -131 m 233 454 q 163 460 193 454 q 113 483 133 467 q 81 529 92 500 q 71 603 71 558 q 113 723 71 692 q 233 754 154 754 q 353 723 313 754 q 394 603 394 692 q 384 529 394 558 q 353 483 374 500 q 302 460 332 467 q 233 454 272 454 z "},"<":{"ha":739,"x_min":63,"x_max":667,"o":"m 63 379 l 63 626 l 667 924 l 667 653 l 297 503 l 667 350 l 667 83 l 63 379 z "},"=":{"ha":758,"x_min":83,"x_max":675,"o":"m 83 443 l 675 443 l 675 225 l 83 225 l 83 443 m 83 778 l 675 778 l 675 560 l 83 560 l 83 778 z "},">":{"ha":739,"x_min":72,"x_max":676,"o":"m 72 83 l 72 350 l 442 503 l 72 653 l 72 924 l 676 626 l 676 379 l 72 83 z "},"?":{"ha":864,"x_min":49,"x_max":792,"o":"m 307 -18 q 239 -12 268 -18 q 190 8 210 -7 q 160 51 169 24 q 150 121 150 78 q 160 190 150 164 q 190 232 169 217 q 239 253 210 247 q 307 258 268 258 q 374 253 344 258 q 422 232 403 247 q 452 190 442 217 q 463 121 463 164 q 452 51 463 78 q 422 8 442 24 q 374 -12 403 -7 q 307 -18 344 -18 m 107 1010 l 575 1010 q 741 962 690 1010 q 792 810 792 914 l 792 608 q 783 506 792 547 q 753 440 775 465 q 693 405 732 415 q 592 394 654 394 l 453 394 q 442 393 443 394 q 440 383 440 392 l 440 321 l 175 321 l 175 488 q 213 581 175 556 q 321 606 250 606 l 446 606 q 472 613 465 606 q 479 633 479 621 l 479 714 q 472 735 479 728 q 446 742 465 742 l 49 742 l 107 1010 z "},"@":{"ha":1224,"x_min":71,"x_max":1154,"o":"m 760 614 q 733 606 740 614 q 726 583 726 599 l 726 425 q 757 397 726 397 l 878 397 l 878 614 l 760 614 m 475 606 q 506 709 475 675 q 629 743 538 743 l 901 743 l 901 783 q 896 813 901 803 q 854 822 890 822 l 393 822 q 358 809 367 822 q 350 781 350 796 l 350 203 q 356 183 350 189 q 382 178 363 178 l 1039 178 l 974 0 l 254 0 q 115 35 160 0 q 71 154 71 71 l 71 829 q 77 895 71 863 q 103 953 83 928 q 159 994 122 979 q 256 1010 196 1010 l 976 1010 q 1074 993 1039 1010 q 1128 951 1110 976 q 1150 894 1146 925 q 1154 833 1154 863 l 1154 244 l 878 244 l 878 290 l 821 244 l 621 244 q 547 256 575 244 q 502 287 518 268 q 481 330 486 306 q 475 381 475 354 l 475 606 z "},"A":{"ha":1033,"x_min":35,"x_max":999,"o":"m 35 0 l 289 1010 l 743 1010 l 999 0 l 668 0 l 647 108 l 388 108 l 365 0 l 35 0 m 432 324 l 601 324 l 517 738 l 432 324 z "},"B":{"ha":985,"x_min":72,"x_max":915,"o":"m 72 1010 l 678 1010 q 782 999 740 1010 q 848 965 824 989 q 883 902 872 942 q 893 803 893 863 l 893 596 q 873 540 893 560 q 817 515 853 521 q 851 504 833 513 q 883 483 868 496 q 906 452 897 469 q 915 413 915 435 l 915 213 q 905 110 915 151 q 870 45 894 69 q 805 10 846 21 q 703 0 764 0 l 72 0 l 72 1010 m 533 228 q 579 235 561 228 q 597 271 597 242 l 597 338 q 535 390 597 390 l 386 390 l 386 228 l 533 228 m 538 604 q 576 615 565 604 q 586 653 586 625 l 586 715 q 568 751 586 743 q 522 760 550 760 l 386 760 l 386 604 l 538 604 z "},"C":{"ha":849,"x_min":72,"x_max":807,"o":"m 289 0 q 188 10 229 0 q 122 45 147 21 q 84 109 96 69 q 72 207 72 149 l 72 800 q 85 903 72 863 q 124 967 97 943 q 194 1000 151 990 q 297 1010 236 1010 l 735 1010 l 792 740 l 442 740 q 403 730 414 740 q 393 692 393 719 l 393 325 q 395 297 393 307 q 403 280 397 286 q 422 272 410 274 q 454 269 433 269 l 807 269 l 739 0 l 289 0 z "},"D":{"ha":986,"x_min":72,"x_max":914,"o":"m 72 1010 l 689 1010 q 792 997 750 1010 q 862 958 835 985 q 901 888 889 931 q 914 783 914 844 l 914 228 q 902 122 914 165 q 863 51 890 78 q 793 12 836 24 q 689 0 750 0 l 72 0 l 72 1010 m 553 269 q 592 279 583 269 q 601 318 601 289 l 601 693 q 592 732 601 722 q 551 742 583 742 l 385 742 l 385 269 l 553 269 z "},"E":{"ha":856,"x_min":72,"x_max":811,"o":"m 386 740 l 386 618 l 746 618 l 746 381 l 386 381 l 386 269 l 811 269 l 744 0 l 72 0 l 72 1010 l 753 1010 l 808 740 l 386 740 z "},"F":{"ha":850,"x_min":72,"x_max":808,"o":"m 386 740 l 386 597 l 746 597 l 746 358 l 385 358 l 385 0 l 72 0 l 72 1010 l 753 1010 l 808 740 l 386 740 z "},"G":{"ha":979,"x_min":72,"x_max":910,"o":"m 440 740 q 402 731 413 740 q 392 692 392 721 l 392 306 q 402 267 392 276 q 440 257 413 257 l 608 257 l 608 393 l 544 393 l 544 599 l 910 599 l 910 14 l 608 -54 l 608 0 l 288 0 q 184 10 225 0 q 118 44 143 19 q 83 108 93 68 q 72 206 72 147 l 72 793 q 83 894 72 853 q 118 962 93 936 q 184 999 143 988 q 288 1010 225 1010 l 792 1010 l 847 740 l 440 740 z "},"H":{"ha":1013,"x_min":72,"x_max":940,"o":"m 72 1010 l 397 1010 l 397 632 l 615 632 l 615 1010 l 940 1010 l 940 0 l 615 0 l 615 375 l 397 375 l 397 0 l 72 0 l 72 1010 z "},"I":{"ha":475,"x_min":79,"x_max":396,"o":"m 79 1010 l 396 1010 l 396 0 l 79 0 l 79 1010 z "},"K":{"ha":1003,"x_min":72,"x_max":975,"o":"m 463 611 l 624 1010 l 975 1010 l 768 532 l 975 0 l 601 0 l 478 367 l 419 367 l 419 0 l 72 0 l 72 1010 l 419 1010 l 419 611 l 463 611 l 463 611 z "},"L":{"ha":800,"x_min":72,"x_max":763,"o":"m 72 0 l 72 1010 l 397 1010 l 397 269 l 763 269 l 694 0 l 72 0 z "},"M":{"ha":1286,"x_min":72,"x_max":1214,"o":"m 72 1010 l 469 1010 l 640 611 l 818 1010 l 1214 1010 l 1214 0 l 893 0 l 893 490 l 640 4 l 393 490 l 393 0 l 72 0 l 72 1010 z "},"N":{"ha":1021,"x_min":72,"x_max":949,"o":"m 72 1010 l 382 1010 l 632 557 l 632 1010 l 949 1010 l 949 0 l 638 0 l 388 442 l 388 0 l 72 0 l 72 1010 z "},"O":{"ha":1010,"x_min":72,"x_max":938,"o":"m 246 0 q 119 49 167 0 q 72 174 72 97 l 72 835 q 119 960 72 911 q 246 1010 167 1010 l 763 1010 q 890 960 842 1010 q 938 835 938 911 l 938 174 q 923 103 938 135 q 883 48 908 71 q 823 13 857 25 q 750 0 789 0 l 246 0 m 572 269 q 610 280 600 269 q 619 318 619 290 l 619 693 q 609 732 619 722 q 571 742 599 742 l 436 742 q 398 732 407 742 q 389 694 389 722 l 389 318 q 398 279 389 289 q 436 269 407 269 l 572 269 z "},"P":{"ha":975,"x_min":72,"x_max":906,"o":"m 72 1010 l 694 1010 q 796 999 756 1010 q 860 965 836 989 q 895 899 885 940 q 906 797 906 858 l 906 468 q 895 365 906 406 q 860 299 885 324 q 794 263 835 274 q 692 253 753 253 l 396 253 l 396 0 l 72 0 l 72 1010 m 543 514 q 592 526 579 514 q 604 574 604 538 l 604 685 q 592 732 604 721 q 543 743 579 743 l 396 743 l 396 514 l 543 514 z "},"Q":{"ha":1010,"x_min":72,"x_max":938,"o":"m 246 0 q 119 49 167 0 q 72 174 72 97 l 72 835 q 119 960 72 911 q 246 1010 167 1010 l 763 1010 q 890 960 842 1010 q 938 835 938 911 l 938 172 q 923 102 938 133 q 883 48 908 71 q 823 13 857 25 q 750 0 789 0 l 647 0 l 647 -133 l 360 -133 l 360 0 l 246 0 m 572 269 q 610 280 600 269 q 619 318 619 290 l 619 693 q 609 732 619 722 q 571 742 599 742 l 436 742 q 398 732 407 742 q 389 694 389 722 l 389 318 q 398 279 389 289 q 436 269 407 269 l 572 269 z "},"R":{"ha":989,"x_min":72,"x_max":950,"o":"m 443 313 l 401 313 l 401 0 l 72 0 l 72 1010 l 694 1010 q 869 957 814 1010 q 924 785 924 904 l 924 519 q 914 458 924 488 q 885 407 904 429 q 838 372 867 385 q 774 358 810 358 q 824 331 806 351 q 853 276 842 311 l 950 0 l 596 0 l 504 267 q 481 301 496 289 q 443 313 467 313 m 396 542 l 519 542 q 592 558 574 542 q 610 614 610 574 l 610 694 q 553 754 610 754 l 396 754 l 396 542 z "},"S":{"ha":928,"x_min":69,"x_max":858,"o":"m 139 0 l 83 269 l 507 269 q 522 274 518 269 q 526 290 526 278 l 526 360 q 504 383 526 383 l 279 383 q 176 393 217 383 q 113 426 136 403 q 79 488 89 449 q 69 589 69 528 l 69 792 q 81 896 69 854 q 118 963 92 938 q 187 999 144 988 q 290 1010 229 1010 l 793 1010 l 849 740 l 400 740 q 385 736 389 740 q 382 719 382 732 l 382 642 q 386 625 382 631 q 403 619 390 619 l 647 619 q 749 610 708 619 q 813 578 789 601 q 848 514 838 554 q 858 413 858 474 l 858 213 q 847 110 858 151 q 809 45 835 69 q 741 10 783 21 q 638 0 699 0 l 139 0 z "},"T":{"ha":906,"x_min":35,"x_max":871,"o":"m 92 1010 l 814 1010 l 871 740 l 624 740 l 624 0 l 282 0 l 282 740 l 35 740 l 92 1010 z "},"U":{"ha":983,"x_min":72,"x_max":911,"o":"m 299 0 q 193 8 236 0 q 123 37 150 15 q 84 97 96 58 q 72 199 72 136 l 72 1010 l 388 1010 l 388 317 q 399 279 388 289 q 438 269 410 269 l 546 269 q 585 279 576 269 q 594 317 594 289 l 594 1010 l 911 1010 l 911 199 q 899 97 911 136 q 859 37 886 58 q 789 8 832 15 q 683 0 746 0 l 299 0 z "},"V":{"ha":1054,"x_min":42,"x_max":1013,"o":"m 314 0 l 42 1010 l 382 1010 l 531 314 l 681 1010 l 1013 1010 l 742 0 l 314 0 z "},"W":{"ha":1418,"x_min":42,"x_max":1376,"o":"m 251 0 l 42 1010 l 376 1010 l 460 449 l 597 1003 l 818 1003 l 957 449 l 1039 1010 l 1376 1010 l 1164 0 l 821 0 l 708 488 l 597 0 l 251 0 z "},"X":{"ha":978,"x_min":35,"x_max":943,"o":"m 394 0 l 35 0 l 236 492 l 38 1010 l 389 1010 l 489 644 l 588 1010 l 939 1010 l 740 492 l 943 0 l 581 0 l 489 321 l 394 0 z "},"Z":{"ha":865,"x_min":7,"x_max":858,"o":"m 750 0 l 7 0 l 376 743 l 53 743 l 107 1010 l 858 1010 l 504 269 l 806 269 l 750 0 z "},"^":{"ha":904,"x_min":42,"x_max":863,"o":"m 319 1010 l 588 1010 l 863 651 l 581 651 l 453 836 l 325 651 l 42 651 l 319 1010 z "},"_":{"ha":853,"x_min":58,"x_max":794,"o":"m 58 0 l 794 0 l 794 -200 l 58 -200 l 58 0 z "},"`":{"ha":600,"x_min":56,"x_max":544,"o":"m 544 1082 l 358 1082 l 56 1335 l 339 1335 l 544 1082 z "},"~":{"ha":825,"x_min":54,"x_max":772,"o":"m 68 317 q 58 442 54 381 q 85 550 61 503 q 152 626 108 597 q 261 656 196 656 q 302 653 279 656 q 362 642 325 651 q 453 614 399 633 q 586 560 507 594 q 617 562 604 556 q 640 581 631 568 q 653 614 649 594 q 657 654 657 633 l 763 654 q 767 535 772 596 q 741 426 763 475 q 680 346 719 378 q 578 314 640 314 q 520 317 553 314 q 428 338 488 319 q 353 367 401 347 q 231 422 306 388 q 201 422 213 431 q 181 395 189 413 q 171 356 174 378 q 168 317 168 335 l 68 317 z "},"‘":{"ha":450,"x_min":63,"x_max":388,"o":"m 249 1060 q 239 1034 244 1049 q 229 1003 233 1019 q 222 973 225 988 q 219 949 219 958 q 291 942 260 949 q 344 919 322 936 q 376 872 365 903 q 388 792 388 842 q 352 688 388 726 q 228 649 317 649 q 99 684 136 649 q 63 799 63 719 q 72 872 63 832 q 94 948 81 911 q 124 1015 108 985 q 150 1060 139 1044 l 249 1060 l 249 1060 z "},"’":{"ha":450,"x_min":63,"x_max":388,"o":"m 201 640 q 211 665 206 650 q 221 697 217 681 q 228 727 225 713 q 231 751 231 742 q 159 758 190 751 q 106 781 128 764 q 74 828 85 797 q 63 908 63 858 q 97 1013 63 974 q 222 1051 132 1051 q 351 1016 314 1051 q 388 901 388 981 q 378 828 388 868 q 355 752 368 789 q 326 685 342 715 q 300 640 311 656 l 201 640 l 201 640 z "},"“":{"ha":842,"x_min":63,"x_max":779,"o":"m 249 1060 q 239 1034 244 1049 q 229 1003 233 1019 q 222 973 225 988 q 219 949 219 958 q 291 942 260 949 q 344 919 322 936 q 376 872 365 903 q 388 792 388 842 q 352 688 388 726 q 228 649 317 649 q 99 684 136 649 q 63 799 63 719 q 72 872 63 832 q 94 948 81 911 q 124 1015 108 985 q 150 1060 139 1044 l 249 1060 m 640 1060 q 631 1034 636 1049 q 621 1003 625 1019 q 614 973 617 988 q 611 949 611 958 q 683 942 651 949 q 735 919 714 936 q 768 872 757 903 q 779 792 779 842 q 744 688 779 726 q 619 649 708 649 q 491 684 528 649 q 454 799 454 719 q 463 872 454 832 q 486 948 472 911 q 515 1015 500 985 q 542 1060 531 1044 l 640 1060 z "},"”":{"ha":842,"x_min":63,"x_max":779,"o":"m 593 640 q 603 665 597 650 q 613 697 608 681 q 619 727 617 713 q 622 751 622 742 q 551 758 582 751 q 498 781 519 764 q 465 828 476 797 q 454 908 454 858 q 489 1013 454 974 q 614 1051 524 1051 q 742 1016 706 1051 q 779 901 779 981 q 769 828 779 868 q 747 752 760 789 q 718 685 733 715 q 692 640 703 656 l 593 640 m 201 640 q 211 665 206 650 q 221 697 217 681 q 228 727 225 713 q 231 751 231 742 q 159 758 190 751 q 106 781 128 764 q 74 828 85 797 q 63 908 63 858 q 97 1013 63 974 q 222 1051 132 1051 q 351 1016 314 1051 q 388 901 388 981 q 378 828 388 868 q 355 752 368 789 q 326 685 342 715 q 300 640 311 656 l 201 640 z "},"•":{"ha":642,"x_min":76,"x_max":565,"o":"m 321 256 q 226 275 271 256 q 149 328 182 294 q 96 406 115 361 q 76 504 76 451 q 96 597 76 553 q 149 673 115 640 q 226 725 182 706 q 321 744 271 744 q 415 725 371 744 q 493 673 460 706 q 546 597 526 640 q 565 504 565 553 q 546 406 565 451 q 493 328 526 361 q 415 275 460 294 q 321 256 371 256 z "},"¡":{"ha":456,"x_min":49,"x_max":407,"o":"m 117 482 l 338 482 l 407 -208 l 49 -208 l 117 482 m 228 819 q 294 814 265 819 q 343 793 324 808 q 373 751 363 778 q 383 681 383 724 q 373 611 383 638 q 343 569 363 585 q 294 549 324 554 q 228 543 265 543 q 160 549 190 543 q 111 569 131 554 q 81 611 92 585 q 71 681 71 638 q 81 751 71 724 q 111 793 92 778 q 160 814 131 808 q 228 819 190 819 z "},"¢":{"ha":693,"x_min":56,"x_max":644,"o":"m 286 0 l 286 218 q 200 239 242 218 q 126 297 158 260 q 75 388 94 335 q 56 506 56 440 q 76 622 56 569 q 128 713 96 675 q 203 771 161 750 q 286 792 244 792 l 286 1010 l 482 1010 l 482 800 l 589 800 l 644 607 l 478 607 q 411 603 439 607 q 365 590 383 600 q 339 559 347 579 q 331 506 331 539 q 339 451 331 472 q 365 420 347 431 q 411 406 383 410 q 478 403 439 403 l 644 403 l 589 210 l 482 210 l 482 0 l 286 0 z "},"£":{"ha":989,"x_min":56,"x_max":940,"o":"m 142 274 l 356 274 l 296 411 l 144 411 l 56 614 l 207 614 q 175 669 189 639 q 153 728 163 694 q 143 800 143 763 q 153 885 143 847 q 195 951 163 924 q 289 994 228 979 q 453 1010 350 1010 l 825 1010 l 883 731 l 557 731 q 529 720 538 731 q 526 689 521 710 l 558 614 l 757 614 l 857 411 l 649 411 l 714 274 l 940 274 l 874 0 l 253 0 l 142 274 z "},"¥":{"ha":1010,"x_min":6,"x_max":1004,"o":"m 6 1010 l 388 1010 l 513 638 l 624 1010 l 1004 1010 l 676 332 l 676 311 l 799 311 l 799 224 l 676 224 l 676 169 l 799 169 l 799 81 l 676 81 l 676 0 l 338 0 l 338 81 l 215 81 l 215 169 l 338 169 l 338 224 l 215 224 l 215 311 l 338 311 l 338 332 l 6 1010 z "},"¨":{"ha":742,"x_min":56,"x_max":686,"o":"m 189 1072 q 91 1113 126 1072 q 56 1207 56 1153 q 91 1298 56 1258 q 189 1338 126 1338 q 289 1298 253 1338 q 325 1207 325 1258 q 289 1113 325 1153 q 189 1072 253 1072 m 553 1072 q 499 1083 524 1072 q 456 1113 474 1094 q 428 1155 438 1131 q 418 1207 418 1179 q 428 1256 418 1232 q 456 1297 438 1279 q 499 1326 474 1315 q 553 1338 524 1338 q 652 1298 618 1338 q 686 1207 686 1258 q 652 1113 686 1153 q 553 1072 618 1072 z "},"°":{"ha":585,"x_min":56,"x_max":529,"o":"m 289 567 q 198 586 240 567 q 124 638 156 606 q 74 713 92 669 q 56 804 56 756 q 74 896 56 853 q 124 972 92 939 q 198 1023 156 1004 q 289 1042 240 1042 q 381 1023 338 1042 q 458 972 425 1004 q 510 896 490 939 q 529 804 529 853 q 510 713 529 756 q 458 638 490 669 q 381 586 425 606 q 289 567 338 567 m 289 722 q 347 747 322 722 q 371 804 371 772 q 347 863 371 839 q 289 886 322 886 q 233 863 257 886 q 210 804 210 839 q 233 747 210 772 q 289 722 257 722 z "},"´":{"ha":600,"x_min":56,"x_max":544,"o":"m 261 1335 l 544 1335 l 242 1082 l 56 1082 l 261 1335 z "},"¸":{"ha":561,"x_min":69,"x_max":492,"o":"m 288 15 l 288 -61 q 391 -72 351 -58 q 453 -106 431 -85 q 483 -153 475 -128 q 492 -201 492 -179 q 481 -265 492 -233 q 444 -322 471 -296 q 369 -365 417 -349 q 250 -381 322 -381 q 144 -362 192 -381 q 69 -321 97 -344 l 96 -222 q 174 -259 136 -250 q 240 -264 211 -268 q 287 -244 269 -260 q 304 -206 304 -229 q 269 -160 304 -174 q 154 -160 235 -146 l 154 15 l 288 15 z "},"¼":{"ha":1844,"x_min":69,"x_max":1775,"o":"m 164 772 l 69 772 l 139 1006 l 439 1006 l 439 163 l 164 163 l 164 772 m 838 1026 l 1036 1026 l 668 -21 l 468 -21 l 838 1026 m 1410 154 l 1010 154 l 1010 375 l 1064 490 l 1064 843 l 1319 843 l 1319 490 l 1288 390 l 1410 390 l 1410 843 l 1678 843 l 1678 390 l 1775 390 l 1775 154 l 1678 154 l 1678 0 l 1410 0 l 1410 154 z "},"½":{"ha":1725,"x_min":69,"x_max":1656,"o":"m 164 772 l 69 772 l 139 1006 l 439 1006 l 439 163 l 164 163 l 164 772 m 838 1026 l 1036 1026 l 668 -21 l 468 -21 l 838 1026 m 1014 172 q 1035 340 1014 281 q 1092 428 1057 399 q 1173 468 1128 458 q 1264 489 1218 478 q 1285 494 1272 490 q 1315 502 1299 497 q 1345 515 1331 507 q 1369 531 1360 522 q 1385 558 1385 542 q 1353 582 1385 582 l 1292 582 l 1036 582 l 1092 843 l 1515 843 q 1570 831 1544 843 q 1615 801 1596 819 q 1644 759 1633 782 q 1656 713 1656 736 l 1656 551 q 1652 497 1654 519 q 1644 454 1650 474 q 1626 417 1638 435 q 1593 381 1614 400 q 1535 337 1565 353 q 1477 310 1506 321 q 1423 294 1449 300 q 1378 279 1397 288 q 1349 258 1360 271 q 1338 225 1338 246 l 1656 225 l 1656 0 l 1014 0 l 1014 172 z "},"¾":{"ha":2092,"x_min":69,"x_max":2022,"o":"m 69 393 l 428 393 q 452 399 449 393 q 456 418 456 404 l 456 544 q 452 560 456 557 q 438 564 449 564 l 142 564 l 335 786 l 83 786 l 139 1006 l 738 1006 l 517 718 q 602 713 564 719 q 667 688 640 707 q 708 636 693 669 q 722 549 722 603 l 722 294 q 681 192 722 221 q 575 163 639 163 l 125 163 l 69 393 m 1085 1026 l 1283 1026 l 915 -21 l 717 -21 l 1085 1026 m 1657 154 l 1257 154 l 1257 375 l 1311 490 l 1311 843 l 1567 843 l 1567 490 l 1535 390 l 1657 390 l 1657 843 l 1925 843 l 1925 390 l 2022 390 l 2022 154 l 1925 154 l 1925 0 l 1657 0 l 1657 154 z "},"¿":{"ha":871,"x_min":56,"x_max":799,"o":"m 540 819 q 608 814 579 819 q 657 793 638 808 q 687 751 676 778 q 697 681 697 724 q 687 611 697 638 q 657 569 676 585 q 608 549 638 554 q 540 543 579 543 q 474 549 503 543 q 425 569 444 554 q 395 611 406 585 q 385 681 385 638 q 395 751 385 724 q 425 793 406 778 q 474 814 444 808 q 540 819 503 819 m 743 -208 l 272 -208 q 106 -160 157 -208 q 56 -8 56 -112 l 56 193 q 64 294 56 253 q 94 360 72 335 q 154 396 115 385 q 256 407 193 407 l 394 407 q 406 408 404 407 q 407 418 407 410 l 407 481 l 672 481 l 672 314 q 635 221 672 246 q 526 196 597 196 l 401 196 q 375 188 382 196 q 368 168 368 181 l 368 88 q 375 67 368 74 q 401 60 382 60 l 799 60 l 743 -208 z "},"À":{"ha":1033,"x_min":35,"x_max":999,"o":"m 35 0 l 289 1010 l 743 1010 l 999 0 l 668 0 l 647 108 l 388 108 l 365 0 l 35 0 m 432 324 l 601 324 l 517 738 l 432 324 m 625 1082 l 439 1082 l 136 1335 l 419 1335 l 625 1082 z "},"Á":{"ha":1033,"x_min":35,"x_max":999,"o":"m 35 0 l 289 1010 l 743 1010 l 999 0 l 668 0 l 647 108 l 388 108 l 365 0 l 35 0 m 432 324 l 601 324 l 517 738 l 432 324 m 629 1335 l 913 1335 l 610 1082 l 424 1082 l 629 1335 z "},"Â":{"ha":1033,"x_min":35,"x_max":999,"o":"m 35 0 l 289 1010 l 743 1010 l 999 0 l 668 0 l 647 108 l 388 108 l 365 0 l 35 0 m 432 324 l 601 324 l 517 738 l 432 324 m 408 1335 l 624 1335 l 829 1082 l 606 1082 l 515 1210 l 426 1082 l 206 1082 l 408 1335 z "},"Ã":{"ha":1033,"x_min":35,"x_max":999,"o":"m 35 0 l 289 1010 l 743 1010 l 999 0 l 668 0 l 647 108 l 388 108 l 365 0 l 35 0 m 432 324 l 601 324 l 517 738 l 432 324 m 183 1081 q 185 1177 176 1132 q 220 1256 194 1222 q 288 1308 246 1289 q 390 1326 329 1326 q 460 1314 426 1326 q 524 1286 493 1301 q 586 1258 556 1271 q 649 1246 617 1246 q 704 1326 708 1246 l 854 1326 q 819 1136 865 1200 q 642 1076 772 1072 q 569 1092 606 1078 q 498 1124 532 1107 q 433 1153 464 1140 q 378 1165 403 1167 q 331 1081 322 1161 l 183 1081 z "},"Ä":{"ha":1033,"x_min":35,"x_max":999,"o":"m 35 0 l 289 1010 l 743 1010 l 999 0 l 668 0 l 647 108 l 388 108 l 365 0 l 35 0 m 432 324 l 601 324 l 517 738 l 432 324 m 335 1072 q 237 1113 272 1072 q 201 1207 201 1153 q 237 1298 201 1258 q 335 1338 272 1338 q 435 1298 399 1338 q 471 1207 471 1258 q 435 1113 471 1153 q 335 1072 399 1072 m 699 1072 q 644 1083 669 1072 q 601 1113 619 1094 q 574 1155 583 1131 q 564 1207 564 1179 q 574 1256 564 1232 q 601 1297 583 1279 q 644 1326 619 1315 q 699 1338 669 1338 q 798 1298 764 1338 q 832 1207 832 1258 q 798 1113 832 1153 q 699 1072 764 1072 z "},"Å":{"ha":1033,"x_min":35,"x_max":999,"o":"m 35 0 l 289 1010 l 743 1010 l 999 0 l 668 0 l 647 108 l 388 108 l 365 0 l 35 0 m 432 324 l 601 324 l 517 738 l 432 324 m 515 1058 q 447 1072 479 1058 q 392 1110 415 1086 q 355 1165 368 1133 q 342 1233 342 1197 q 355 1301 342 1269 q 392 1358 368 1333 q 447 1396 415 1382 q 515 1410 479 1410 q 584 1396 551 1410 q 641 1358 617 1382 q 679 1301 665 1333 q 693 1233 693 1269 q 679 1165 693 1197 q 641 1110 665 1133 q 584 1072 617 1086 q 515 1058 551 1058 m 515 1172 q 558 1190 539 1172 q 578 1233 578 1207 q 558 1275 578 1258 q 515 1292 539 1292 q 474 1275 492 1292 q 456 1233 456 1258 q 474 1190 456 1207 q 515 1172 492 1172 z "},"Æ":{"ha":1464,"x_min":28,"x_max":1419,"o":"m 994 740 l 994 618 l 1354 618 l 1354 381 l 994 381 l 994 269 l 1419 269 l 1353 0 l 688 0 l 689 108 l 429 108 l 378 0 l 28 0 l 521 1010 l 1361 1010 l 1417 740 l 994 740 m 524 324 l 689 324 l 689 738 l 524 324 z "},"Ç":{"ha":853,"x_min":72,"x_max":807,"o":"m 497 0 l 497 -61 q 601 -72 561 -58 q 663 -106 640 -85 q 693 -153 685 -128 q 701 -201 701 -179 q 691 -265 701 -233 q 653 -322 681 -296 q 579 -365 626 -349 q 460 -381 532 -381 q 354 -362 401 -381 q 279 -321 307 -344 l 306 -222 q 383 -259 346 -250 q 450 -264 421 -268 q 497 -244 479 -260 q 514 -206 514 -229 q 479 -160 514 -174 q 364 -160 444 -146 l 364 0 l 269 0 q 172 9 210 0 q 111 41 133 18 q 81 101 89 64 q 72 197 72 139 l 72 814 q 83 915 72 876 q 117 974 93 953 q 182 1002 142 994 q 283 1010 222 1010 l 735 1010 l 792 740 l 442 740 q 403 730 414 740 q 393 692 393 719 l 393 325 q 395 297 393 307 q 403 280 397 286 q 422 272 410 274 q 454 269 433 269 l 807 269 l 739 0 l 497 0 z "},"È":{"ha":856,"x_min":72,"x_max":811,"o":"m 386 740 l 386 618 l 746 618 l 746 381 l 386 381 l 386 269 l 811 269 l 744 0 l 72 0 l 72 1010 l 753 1010 l 808 740 l 386 740 m 572 1082 l 386 1082 l 83 1335 l 367 1335 l 572 1082 z "},"É":{"ha":856,"x_min":72,"x_max":811,"o":"m 386 740 l 386 618 l 746 618 l 746 381 l 386 381 l 386 269 l 811 269 l 744 0 l 72 0 l 72 1010 l 753 1010 l 808 740 l 386 740 m 518 1335 l 801 1335 l 499 1082 l 313 1082 l 518 1335 z "},"Ê":{"ha":856,"x_min":72,"x_max":811,"o":"m 386 740 l 386 618 l 746 618 l 746 381 l 386 381 l 386 269 l 811 269 l 744 0 l 72 0 l 72 1010 l 753 1010 l 808 740 l 386 740 m 318 1335 l 533 1335 l 739 1082 l 515 1082 l 425 1210 l 336 1082 l 115 1082 l 318 1335 z "},"Ë":{"ha":856,"x_min":72,"x_max":811,"o":"m 386 740 l 386 618 l 746 618 l 746 381 l 386 381 l 386 269 l 811 269 l 744 0 l 72 0 l 72 1010 l 753 1010 l 808 740 l 386 740 m 240 1072 q 142 1113 178 1072 q 107 1207 107 1153 q 142 1298 107 1258 q 240 1338 178 1338 q 340 1298 304 1338 q 376 1207 376 1258 q 340 1113 376 1153 q 240 1072 304 1072 m 604 1072 q 550 1083 575 1072 q 507 1113 525 1094 q 479 1155 489 1131 q 469 1207 469 1179 q 479 1256 469 1232 q 507 1297 489 1279 q 550 1326 525 1315 q 604 1338 575 1338 q 703 1298 669 1338 q 738 1207 738 1258 q 703 1113 738 1153 q 604 1072 669 1072 z "},"Ì":{"ha":475,"x_min":-156,"x_max":396,"o":"m 79 1010 l 396 1010 l 396 0 l 79 0 l 79 1010 m 333 1082 l 147 1082 l -156 1335 l 128 1335 l 333 1082 z "},"Í":{"ha":475,"x_min":79,"x_max":628,"o":"m 79 1010 l 396 1010 l 396 0 l 79 0 l 79 1010 m 344 1335 l 628 1335 l 325 1082 l 139 1082 l 344 1335 z "},"Î":{"ha":475,"x_min":-74,"x_max":550,"o":"m 79 1010 l 396 1010 l 396 0 l 79 0 l 79 1010 m 129 1335 l 344 1335 l 550 1082 l 326 1082 l 236 1210 l 147 1082 l -74 1082 l 129 1335 z "},"Ï":{"ha":475,"x_min":-81,"x_max":550,"o":"m 79 1010 l 396 1010 l 396 0 l 79 0 l 79 1010 m 53 1072 q -45 1113 -10 1072 q -81 1207 -81 1153 q -45 1298 -81 1258 q 53 1338 -10 1338 q 153 1298 117 1338 q 189 1207 189 1258 q 153 1113 189 1153 q 53 1072 117 1072 m 417 1072 q 363 1083 388 1072 q 319 1113 338 1094 q 292 1155 301 1131 q 282 1207 282 1179 q 292 1256 282 1232 q 319 1297 301 1279 q 363 1326 338 1315 q 417 1338 388 1338 q 516 1298 482 1338 q 550 1207 550 1258 q 516 1113 550 1153 q 417 1072 482 1072 z "},"Ñ":{"ha":1021,"x_min":72,"x_max":949,"o":"m 72 1010 l 382 1010 l 632 557 l 632 1010 l 949 1010 l 949 0 l 638 0 l 388 442 l 388 0 l 72 0 l 72 1010 m 182 1081 q 184 1177 175 1132 q 219 1256 193 1222 q 286 1308 244 1289 q 389 1326 328 1326 q 458 1314 425 1326 q 523 1286 492 1301 q 585 1258 554 1271 q 647 1246 615 1246 q 703 1326 707 1246 l 853 1326 q 817 1136 864 1200 q 640 1076 771 1072 q 567 1092 604 1078 q 497 1124 531 1107 q 432 1153 463 1140 q 376 1165 401 1167 q 329 1081 321 1161 l 182 1081 z "},"Ò":{"ha":1010,"x_min":72,"x_max":938,"o":"m 246 0 q 119 49 167 0 q 72 174 72 97 l 72 835 q 119 960 72 911 q 246 1010 167 1010 l 763 1010 q 890 960 842 1010 q 938 835 938 911 l 938 174 q 923 103 938 135 q 883 48 908 71 q 823 13 857 25 q 750 0 789 0 l 246 0 m 572 269 q 610 280 600 269 q 619 318 619 290 l 619 693 q 609 732 619 722 q 571 742 599 742 l 436 742 q 398 732 407 742 q 389 694 389 722 l 389 318 q 398 279 389 289 q 436 269 407 269 l 572 269 m 604 1082 l 418 1082 l 115 1335 l 399 1335 l 604 1082 z "},"Ó":{"ha":1010,"x_min":72,"x_max":938,"o":"m 246 0 q 119 49 167 0 q 72 174 72 97 l 72 835 q 119 960 72 911 q 246 1010 167 1010 l 763 1010 q 890 960 842 1010 q 938 835 938 911 l 938 174 q 923 103 938 135 q 883 48 908 71 q 823 13 857 25 q 750 0 789 0 l 246 0 m 572 269 q 610 280 600 269 q 619 318 619 290 l 619 693 q 609 732 619 722 q 571 742 599 742 l 436 742 q 398 732 407 742 q 389 694 389 722 l 389 318 q 398 279 389 289 q 436 269 407 269 l 572 269 m 608 1335 l 892 1335 l 589 1082 l 403 1082 l 608 1335 z "},"Ô":{"ha":1010,"x_min":72,"x_max":938,"o":"m 246 0 q 119 49 167 0 q 72 174 72 97 l 72 835 q 119 960 72 911 q 246 1010 167 1010 l 763 1010 q 890 960 842 1010 q 938 835 938 911 l 938 174 q 923 103 938 135 q 883 48 908 71 q 823 13 857 25 q 750 0 789 0 l 246 0 m 572 269 q 610 280 600 269 q 619 318 619 290 l 619 693 q 609 732 619 722 q 571 742 599 742 l 436 742 q 398 732 407 742 q 389 694 389 722 l 389 318 q 398 279 389 289 q 436 269 407 269 l 572 269 m 400 1335 l 615 1335 l 821 1082 l 597 1082 l 507 1210 l 418 1082 l 197 1082 l 400 1335 z "},"Õ":{"ha":1010,"x_min":72,"x_max":938,"o":"m 246 0 q 119 49 167 0 q 72 174 72 97 l 72 835 q 119 960 72 911 q 246 1010 167 1010 l 763 1010 q 890 960 842 1010 q 938 835 938 911 l 938 174 q 923 103 938 135 q 883 48 908 71 q 823 13 857 25 q 750 0 789 0 l 246 0 m 572 269 q 610 280 600 269 q 619 318 619 290 l 619 693 q 609 732 619 722 q 571 742 599 742 l 436 742 q 398 732 407 742 q 389 694 389 722 l 389 318 q 398 279 389 289 q 436 269 407 269 l 572 269 m 171 1081 q 173 1177 164 1132 q 208 1256 182 1222 q 275 1308 233 1289 q 378 1326 317 1326 q 447 1314 414 1326 q 512 1286 481 1301 q 574 1258 543 1271 q 636 1246 604 1246 q 692 1326 696 1246 l 842 1326 q 806 1136 853 1200 q 629 1076 760 1072 q 556 1092 593 1078 q 485 1124 519 1107 q 421 1153 451 1140 q 365 1165 390 1167 q 318 1081 310 1161 l 171 1081 z "},"Ö":{"ha":1010,"x_min":72,"x_max":938,"o":"m 246 0 q 119 49 167 0 q 72 174 72 97 l 72 835 q 119 960 72 911 q 246 1010 167 1010 l 763 1010 q 890 960 842 1010 q 938 835 938 911 l 938 174 q 923 103 938 135 q 883 48 908 71 q 823 13 857 25 q 750 0 789 0 l 246 0 m 572 269 q 610 280 600 269 q 619 318 619 290 l 619 693 q 609 732 619 722 q 571 742 599 742 l 436 742 q 398 732 407 742 q 389 694 389 722 l 389 318 q 398 279 389 289 q 436 269 407 269 l 572 269 m 324 1072 q 226 1113 261 1072 q 190 1207 190 1153 q 226 1298 190 1258 q 324 1338 261 1338 q 424 1298 388 1338 q 460 1207 460 1258 q 424 1113 460 1153 q 324 1072 388 1072 m 688 1072 q 633 1083 658 1072 q 590 1113 608 1094 q 563 1155 572 1131 q 553 1207 553 1179 q 563 1256 553 1232 q 590 1297 572 1279 q 633 1326 608 1315 q 688 1338 658 1338 q 787 1298 753 1338 q 821 1207 821 1258 q 787 1113 821 1153 q 688 1072 753 1072 z "},"×":{"ha":856,"x_min":56,"x_max":800,"o":"m 56 282 l 279 507 l 60 732 l 210 875 l 428 653 l 646 872 l 797 725 l 575 506 l 800 283 l 656 132 l 426 357 l 200 132 l 56 282 z "},"Ù":{"ha":983,"x_min":72,"x_max":911,"o":"m 299 0 q 193 8 236 0 q 123 37 150 15 q 84 97 96 58 q 72 199 72 136 l 72 1010 l 388 1010 l 388 317 q 399 279 388 289 q 438 269 410 269 l 546 269 q 585 279 576 269 q 594 317 594 289 l 594 1010 l 911 1010 l 911 199 q 899 97 911 136 q 859 37 886 58 q 789 8 832 15 q 683 0 746 0 l 299 0 m 592 1082 l 406 1082 l 103 1335 l 386 1335 l 592 1082 z "},"Ú":{"ha":983,"x_min":72,"x_max":911,"o":"m 299 0 q 193 8 236 0 q 123 37 150 15 q 84 97 96 58 q 72 199 72 136 l 72 1010 l 388 1010 l 388 317 q 399 279 388 289 q 438 269 410 269 l 546 269 q 585 279 576 269 q 594 317 594 289 l 594 1010 l 911 1010 l 911 199 q 899 97 911 136 q 859 37 886 58 q 789 8 832 15 q 683 0 746 0 l 299 0 m 606 1335 l 889 1335 l 586 1082 l 400 1082 l 606 1335 z "},"Û":{"ha":983,"x_min":72,"x_max":911,"o":"m 299 0 q 193 8 236 0 q 123 37 150 15 q 84 97 96 58 q 72 199 72 136 l 72 1010 l 388 1010 l 388 317 q 399 279 388 289 q 438 269 410 269 l 546 269 q 585 279 576 269 q 594 317 594 289 l 594 1010 l 911 1010 l 911 199 q 899 97 911 136 q 859 37 886 58 q 789 8 832 15 q 683 0 746 0 l 299 0 m 383 1335 l 599 1335 l 804 1082 l 581 1082 l 490 1210 l 401 1082 l 181 1082 l 383 1335 z "},"Ü":{"ha":983,"x_min":72,"x_max":911,"o":"m 299 0 q 193 8 236 0 q 123 37 150 15 q 84 97 96 58 q 72 199 72 136 l 72 1010 l 388 1010 l 388 317 q 399 279 388 289 q 438 269 410 269 l 546 269 q 585 279 576 269 q 594 317 594 289 l 594 1010 l 911 1010 l 911 199 q 899 97 911 136 q 859 37 886 58 q 789 8 832 15 q 683 0 746 0 l 299 0 m 310 1072 q 212 1113 247 1072 q 176 1207 176 1153 q 212 1298 176 1258 q 310 1338 247 1338 q 410 1298 374 1338 q 446 1207 446 1258 q 410 1113 446 1153 q 310 1072 374 1072 m 674 1072 q 619 1083 644 1072 q 576 1113 594 1094 q 549 1155 558 1131 q 539 1207 539 1179 q 549 1256 539 1232 q 576 1297 558 1279 q 619 1326 594 1315 q 674 1338 644 1338 q 773 1298 739 1338 q 807 1207 807 1258 q 773 1113 807 1153 q 674 1072 739 1072 z "},"Ý":{"ha":1054,"x_min":28,"x_max":1026,"o":"m 410 1010 l 535 638 l 646 1010 l 1026 1010 l 704 325 l 704 0 l 354 0 l 354 325 l 28 1010 l 410 1010 m 646 1335 l 929 1335 l 626 1082 l 440 1082 l 646 1335 z "},"÷":{"ha":801,"x_min":63,"x_max":739,"o":"m 63 601 l 739 601 l 739 404 l 63 404 l 63 601 m 389 661 q 332 672 357 661 q 289 703 307 683 q 261 748 271 722 q 251 801 251 774 q 261 852 251 828 q 289 895 271 876 q 332 925 307 914 q 389 936 357 936 q 447 925 421 936 q 492 895 474 914 q 519 852 510 876 q 529 801 529 828 q 492 703 529 744 q 389 661 454 661 m 389 69 q 332 81 357 69 q 289 111 307 92 q 261 156 271 131 q 251 210 251 182 q 261 260 251 236 q 289 303 271 285 q 332 333 307 322 q 389 344 357 344 q 447 333 421 344 q 492 303 474 322 q 519 260 510 285 q 529 210 529 236 q 492 111 529 153 q 389 69 454 69 z "},"":{"ha":1108,"x_min":56,"x_max":1106,"o":"m 746 336 q 315 336 532 282 q 349 288 329 313 q 397 240 369 263 q 457 204 424 218 q 531 190 490 190 q 603 204 569 190 q 663 240 636 218 q 711 288 690 263 q 746 336 732 313 m 833 472 l 228 472 l 301 356 q 530 328 417 328 q 758 356 643 329 l 833 472 m 449 629 q 419 707 431 667 q 385 779 408 747 q 367 779 381 785 q 340 765 354 774 q 315 747 325 756 q 307 735 304 738 l 407 610 q 416 609 408 607 q 431 615 424 611 q 444 622 439 618 q 449 629 450 626 m 582 515 l 531 639 l 481 515 l 582 515 m 753 735 q 744 747 754 738 q 721 765 735 756 q 694 779 707 774 q 676 779 681 785 q 640 707 651 747 q 613 629 628 667 q 615 622 610 626 q 629 615 621 618 q 644 609 638 611 q 654 610 651 607 l 753 735 m 913 515 q 883 367 913 436 q 801 245 853 297 q 679 163 749 193 q 531 133 610 133 q 382 163 451 133 q 260 245 313 193 q 178 367 208 297 q 147 515 147 436 q 178 664 147 594 q 260 785 208 733 q 382 867 313 838 q 531 897 451 897 q 679 867 610 897 q 801 785 749 838 q 883 664 853 733 q 913 515 913 594 m 940 515 q 908 675 940 600 q 821 806 876 750 q 690 894 765 861 q 531 926 615 926 q 371 894 446 926 q 240 806 296 861 q 151 675 183 750 q 118 515 118 600 q 151 356 118 431 q 240 226 183 282 q 371 137 296 169 q 531 104 446 104 q 690 137 615 104 q 821 226 765 169 q 908 356 876 282 q 940 515 940 431 m 982 144 l 946 144 l 946 49 l 919 49 l 919 144 l 885 144 l 885 167 l 982 167 l 982 144 m 1006 515 q 968 331 1006 417 q 866 179 931 244 q 715 76 801 114 q 531 39 628 39 q 346 76 432 39 q 195 179 260 114 q 93 331 131 244 q 56 515 56 417 q 93 701 56 614 q 195 852 131 788 q 346 954 260 917 q 531 992 432 992 q 715 954 628 992 q 866 852 801 917 q 968 701 931 788 q 1006 515 1006 614 m 1106 49 l 1085 49 l 1085 144 l 1061 49 l 1039 49 l 1015 144 l 1015 49 l 993 49 l 993 167 l 1028 167 l 1051 75 l 1071 167 l 1106 167 l 1106 49 z "},"ž":{"ha":1108,"x_min":56,"x_max":1106,"o":"m 746 336 q 315 336 532 282 q 349 288 329 313 q 397 240 369 263 q 457 204 424 218 q 531 190 490 190 q 603 204 569 190 q 663 240 636 218 q 711 288 690 263 q 746 336 732 313 m 833 472 l 228 472 l 301 356 q 530 328 417 328 q 758 356 643 329 l 833 472 m 449 629 q 419 707 431 667 q 385 779 408 747 q 367 779 381 785 q 340 765 354 774 q 315 747 325 756 q 307 735 304 738 l 407 610 q 416 609 408 607 q 431 615 424 611 q 444 622 439 618 q 449 629 450 626 m 582 515 l 531 639 l 481 515 l 582 515 m 753 735 q 744 747 754 738 q 721 765 735 756 q 694 779 707 774 q 676 779 681 785 q 640 707 651 747 q 613 629 628 667 q 615 622 610 626 q 629 615 621 618 q 644 609 638 611 q 654 610 651 607 l 753 735 m 913 515 q 883 367 913 436 q 801 245 853 297 q 679 163 749 193 q 531 133 610 133 q 382 163 451 133 q 260 245 313 193 q 178 367 208 297 q 147 515 147 436 q 178 664 147 594 q 260 785 208 733 q 382 867 313 838 q 531 897 451 897 q 679 867 610 897 q 801 785 749 838 q 883 664 853 733 q 913 515 913 594 m 940 515 q 908 675 940 600 q 821 806 876 750 q 690 894 765 861 q 531 926 615 926 q 371 894 446 926 q 240 806 296 861 q 151 675 183 750 q 118 515 118 600 q 151 356 118 431 q 240 226 183 282 q 371 137 296 169 q 531 104 446 104 q 690 137 615 104 q 821 226 765 169 q 908 356 876 282 q 940 515 940 431 m 982 144 l 946 144 l 946 49 l 919 49 l 919 144 l 885 144 l 885 167 l 982 167 l 982 144 m 1006 515 q 968 331 1006 417 q 866 179 931 244 q 715 76 801 114 q 531 39 628 39 q 346 76 432 39 q 195 179 260 114 q 93 331 131 244 q 56 515 56 417 q 93 701 56 614 q 195 852 131 788 q 346 954 260 917 q 531 992 432 992 q 715 954 628 992 q 866 852 801 917 q 968 701 931 788 q 1006 515 1006 614 m 1106 49 l 1085 49 l 1085 144 l 1061 49 l 1039 49 l 1015 144 l 1015 49 l 993 49 l 993 167 l 1028 167 l 1051 75 l 1071 167 l 1106 167 l 1106 49 z "},"":{"ha":865,"x_min":7,"x_max":858,"o":"m 750 0 l 7 0 l 376 743 l 53 743 l 107 1010 l 858 1010 l 504 269 l 806 269 l 750 0 m 158 1335 l 379 1335 l 468 1207 l 558 1335 l 782 1335 l 576 1082 l 361 1082 l 158 1335 z "},"Ž":{"ha":865,"x_min":7,"x_max":858,"o":"m 750 0 l 7 0 l 376 743 l 53 743 l 107 1010 l 858 1010 l 504 269 l 806 269 l 750 0 m 158 1335 l 379 1335 l 468 1207 l 558 1335 l 782 1335 l 576 1082 l 361 1082 l 158 1335 z "},"€":{"ha":918,"x_min":14,"x_max":876,"o":"m 818 0 l 319 0 q 138 57 190 0 q 86 236 86 114 l 86 358 l 14 358 l 14 476 l 86 476 l 86 528 l 14 528 l 14 644 l 86 644 l 86 772 q 99 882 86 838 q 142 954 113 926 q 216 994 171 982 q 326 1006 261 1006 l 800 1006 l 858 726 l 476 726 q 434 717 446 726 q 424 676 422 707 l 424 644 l 803 644 l 743 528 l 424 528 l 424 476 l 743 476 l 692 358 l 424 358 l 424 328 q 433 288 421 299 q 475 278 444 278 l 876 278 l 818 0 z "}," ":{"ha":208,"x_min":0,"x_max":0,"o":""},"­":{"ha":686,"x_min":72,"x_max":614,"o":"m 72 624 l 614 624 l 614 382 l 72 382 l 72 624 z "},"\\":{"ha":494,"x_min":35,"x_max":460,"o":"m 460 -14 l 232 -14 l 35 1024 l 263 1024 l 460 -14 z "},"J":{"ha":960,"x_min":69,"x_max":888,"o":"m 296 0 q 190 10 233 0 q 120 43 147 19 q 81 108 93 67 q 69 211 69 149 l 69 476 l 379 476 l 379 303 q 390 265 379 275 q 428 256 400 256 l 514 256 q 555 265 544 256 q 565 303 565 275 l 565 740 l 278 740 l 333 1010 l 888 1010 l 888 211 q 877 108 888 149 q 842 43 867 67 q 774 10 817 19 q 669 0 732 0 l 296 0 z "},"Y":{"ha":1054,"x_min":28,"x_max":1026,"o":"m 410 1010 l 535 638 l 646 1010 l 1026 1010 l 704 325 l 704 0 l 354 0 l 354 325 l 28 1010 l 410 1010 z "},"™":{"ha":932,"x_min":42,"x_max":876,"o":"m 360 942 l 243 942 l 243 503 l 160 503 l 160 942 l 42 942 l 42 1010 l 360 1010 l 360 942 m 615 514 l 496 864 l 496 503 l 413 503 l 413 1010 l 525 1010 l 646 657 l 764 1010 l 876 1010 l 876 503 l 794 503 l 794 864 l 675 514 l 615 514 z "},"©":{"ha":1136,"x_min":56,"x_max":1081,"o":"m 569 1010 q 765 972 672 1010 q 928 865 858 933 q 1040 703 999 797 q 1081 500 1081 610 q 1040 294 1081 388 q 928 131 999 200 q 765 24 858 63 q 569 -14 672 -14 q 372 24 465 -14 q 208 131 279 63 q 97 294 138 200 q 56 500 56 388 q 97 703 56 610 q 208 865 138 797 q 372 972 279 933 q 569 1010 465 1010 m 569 924 q 407 892 482 924 q 277 803 332 860 q 190 668 222 746 q 158 500 158 590 q 190 329 158 407 q 277 194 222 251 q 407 106 332 138 q 569 74 482 74 q 730 106 656 74 q 860 194 804 138 q 947 329 915 251 q 978 500 978 407 q 947 668 978 590 q 860 803 915 746 q 730 892 804 860 q 569 924 656 924 m 836 404 q 803 313 826 354 q 748 244 781 272 q 674 201 715 217 q 586 186 633 186 q 463 210 518 186 q 368 277 407 235 q 308 377 329 319 q 286 501 286 435 q 306 625 286 568 q 365 724 326 682 q 458 789 404 765 q 582 813 513 813 q 749 758 679 813 q 835 600 819 704 l 744 600 q 690 691 733 657 q 583 725 646 725 q 500 708 536 725 q 439 660 464 690 q 401 590 414 631 q 389 503 389 550 q 403 416 389 457 q 442 343 417 375 q 504 292 468 311 q 586 274 540 274 q 693 310 650 274 q 744 404 736 346 l 836 404 z "},"®":{"ha":1150,"x_min":56,"x_max":1094,"o":"m 578 1024 q 776 985 682 1024 q 940 877 869 946 q 1053 714 1011 808 q 1094 508 1094 619 q 1053 299 1094 394 q 940 133 1011 203 q 776 25 869 64 q 578 -14 682 -14 q 377 25 472 -14 q 210 133 282 64 q 97 299 139 203 q 56 508 56 394 q 97 714 56 619 q 210 877 139 808 q 377 985 282 946 q 578 1024 472 1024 m 578 936 q 413 903 489 936 q 280 814 336 871 q 192 678 224 757 q 160 508 160 600 q 192 334 160 414 q 280 197 224 254 q 413 107 336 139 q 578 75 489 75 q 740 107 665 75 q 871 197 815 139 q 958 334 926 254 q 990 508 990 414 q 958 678 990 600 q 871 814 926 757 q 740 903 815 871 q 578 936 665 936 m 465 207 l 378 207 l 378 806 l 604 806 q 760 765 708 806 q 811 636 811 724 q 767 517 808 556 q 660 469 725 478 l 828 207 l 728 207 l 568 467 l 465 467 l 465 207 m 576 540 q 631 543 604 540 q 677 556 657 546 q 710 585 697 565 q 722 642 722 606 q 710 689 722 671 q 680 717 699 707 q 638 731 661 728 q 592 735 614 735 l 465 735 l 465 540 l 576 540 z "},"‚":{"ha":450,"x_min":63,"x_max":388,"o":"m 201 -131 q 211 -106 206 -121 q 221 -74 217 -90 q 228 -44 225 -58 q 231 -19 231 -29 q 159 -13 190 -19 q 106 10 128 -7 q 74 57 85 26 q 63 138 63 88 q 97 242 63 203 q 222 281 132 281 q 351 245 314 281 q 388 131 388 210 q 378 58 388 97 q 355 -19 368 18 q 326 -85 342 -56 q 300 -131 311 -115 l 201 -131 l 201 -131 z "},"„":{"ha":858,"x_min":63,"x_max":796,"o":"m 610 -131 q 619 -106 614 -121 q 629 -74 625 -90 q 636 -44 633 -58 q 639 -19 639 -29 q 567 -13 599 -19 q 515 10 536 -7 q 482 57 493 26 q 471 138 471 88 q 506 242 471 203 q 631 281 540 281 q 759 245 722 281 q 796 131 796 210 q 786 58 796 97 q 763 -19 776 18 q 735 -85 750 -56 q 708 -131 719 -115 l 610 -131 m 201 -131 q 211 -106 206 -121 q 221 -74 217 -90 q 228 -44 225 -58 q 231 -19 231 -29 q 159 -13 190 -19 q 106 10 128 -7 q 74 57 85 26 q 63 138 63 88 q 97 242 63 203 q 222 281 132 281 q 351 245 314 281 q 388 131 388 210 q 378 58 388 97 q 355 -19 368 18 q 326 -85 342 -56 q 300 -131 311 -115 l 201 -131 z "},"…":{"ha":1346,"x_min":63,"x_max":1283,"o":"m 225 -19 q 155 -13 185 -19 q 104 10 125 -7 q 73 56 83 26 q 63 129 63 85 q 104 249 63 218 q 225 281 146 281 q 345 249 304 281 q 386 129 386 218 q 376 56 386 85 q 344 10 365 26 q 294 -13 324 -7 q 225 -19 264 -19 m 674 -19 q 603 -13 633 -19 q 553 10 574 -7 q 522 56 532 26 q 511 129 511 85 q 553 249 511 218 q 674 281 594 281 q 794 249 753 281 q 835 129 835 218 q 824 56 835 85 q 793 10 814 26 q 742 -13 772 -7 q 674 -19 713 -19 m 1122 -19 q 1052 -13 1082 -19 q 1001 10 1022 -7 q 970 56 981 26 q 960 129 960 85 q 1001 249 960 218 q 1122 281 1043 281 q 1242 249 1201 281 q 1283 129 1283 218 q 1273 56 1283 85 q 1242 10 1263 26 q 1191 -13 1221 -7 q 1122 -19 1161 -19 z "},"{":{"ha":460,"x_min":0,"x_max":488,"o":"m 207 506 q 292 475 257 500 q 347 416 326 450 q 376 342 368 382 q 383 267 385 301 q 379 156 382 214 q 383 51 376 99 q 414 -26 390 4 q 488 -56 438 -57 l 488 -133 l 396 -133 q 224 -99 286 -133 q 133 -8 161 -65 q 101 123 104 49 q 108 276 99 197 q 114 353 113 318 q 106 412 115 388 q 71 449 96 436 q 0 460 46 461 l 0 550 q 71 561 46 549 q 106 598 96 574 q 114 657 115 622 q 108 733 113 692 q 101 887 99 813 q 133 1018 104 961 q 224 1109 161 1075 q 396 1143 286 1143 l 488 1143 l 488 1065 q 414 1036 438 1067 q 383 958 390 1006 q 379 853 376 911 q 383 743 382 796 q 376 668 385 707 q 347 594 368 629 q 292 535 326 560 q 207 506 257 511 z "},"}":{"ha":463,"x_min":-25,"x_max":463,"o":"m 256 506 q 171 535 206 511 q 115 594 136 560 q 85 668 94 629 q 79 743 76 707 q 83 853 81 796 q 79 958 86 911 q 49 1036 72 1006 q -25 1065 25 1067 l -25 1143 l 67 1143 q 239 1109 176 1143 q 330 1018 301 1075 q 361 887 358 961 q 354 733 364 813 q 349 657 350 692 q 357 598 347 622 q 392 561 367 574 q 463 550 417 549 l 463 460 q 392 449 417 461 q 357 412 367 436 q 349 353 347 388 q 354 276 350 318 q 361 123 364 197 q 330 -8 358 49 q 239 -99 301 -65 q 67 -133 176 -133 l -25 -133 l -25 -56 q 49 -26 25 -57 q 79 51 72 4 q 83 156 86 99 q 79 267 81 214 q 85 342 76 301 q 115 416 94 382 q 171 475 136 450 q 256 506 206 500 z "},"[":{"ha":394,"x_min":69,"x_max":381,"o":"m 381 1163 l 381 1075 l 317 1075 l 317 -62 l 381 -62 l 381 -153 l 69 -153 l 69 1163 l 381 1163 z "},"]":{"ha":394,"x_min":14,"x_max":325,"o":"m 325 1163 l 325 -153 l 14 -153 l 14 -62 l 78 -62 l 78 1075 l 14 1075 l 14 1163 l 325 1163 z "},"|":{"ha":400,"x_min":69,"x_max":331,"o":"m 69 1149 l 331 1149 l 331 -292 l 69 -292 l 69 1149 z "},"˜":{"ha":815,"x_min":65,"x_max":754,"o":"m 72 1081 q 74 1177 65 1132 q 109 1256 83 1222 q 176 1308 135 1289 q 279 1326 218 1326 q 349 1314 315 1326 q 413 1286 382 1301 q 475 1258 444 1271 q 538 1246 506 1246 q 593 1326 597 1246 l 743 1326 q 708 1136 754 1200 q 531 1076 661 1072 q 458 1092 494 1078 q 387 1124 421 1107 q 322 1153 353 1140 q 267 1165 292 1167 q 219 1081 211 1161 l 72 1081 z "},"ˆ":{"ha":735,"x_min":56,"x_max":679,"o":"m 258 1335 l 474 1335 l 679 1082 l 456 1082 l 365 1210 l 276 1082 l 56 1082 l 258 1335 z "},"ƒ":{"ha":829,"x_min":-83,"x_max":801,"o":"m 347 24 q 258 -108 322 -68 q 107 -149 194 -149 l -29 -149 l -83 0 l 3 0 q 44 8 31 0 q 67 46 58 15 l 292 833 q 383 967 319 925 q 535 1010 447 1010 l 743 1010 l 801 788 l 618 788 q 576 780 590 788 q 554 742 563 772 l 513 601 l 714 601 l 651 390 l 450 390 l 347 24 z "},"Œ":{"ha":1408,"x_min":72,"x_max":1364,"o":"m 939 740 l 939 618 l 1299 618 l 1299 381 l 939 381 l 939 269 l 1364 269 l 1297 0 l 239 0 q 116 45 160 0 q 72 167 72 90 l 72 842 q 116 964 72 918 q 239 1010 160 1010 l 1306 1010 l 1361 740 l 939 740 m 572 269 q 610 280 600 269 q 619 318 619 290 l 619 693 q 609 732 619 722 q 571 742 599 742 l 436 742 q 398 732 407 742 q 389 694 389 722 l 389 318 q 398 279 389 289 q 436 269 407 269 l 572 269 z "},"Ø":{"ha":1010,"x_min":36,"x_max":972,"o":"m 93 75 q 72 167 72 113 l 72 842 q 116 964 72 918 q 239 1010 160 1010 l 769 1010 q 838 999 807 1010 l 890 1065 l 972 1006 l 915 933 q 938 842 938 892 l 938 165 q 887 44 938 88 q 757 0 836 0 l 239 0 q 169 11 203 0 l 111 -56 l 36 6 l 93 75 m 389 435 l 615 722 q 600 738 610 733 q 571 742 590 742 l 436 742 q 398 732 407 742 q 389 694 389 722 l 389 435 m 572 269 q 610 280 600 269 q 619 318 619 290 l 619 574 l 393 286 q 407 272 397 275 q 436 269 417 269 l 572 269 z "},"±":{"ha":939,"x_min":72,"x_max":867,"o":"m 72 0 l 72 222 l 346 222 l 346 404 l 72 404 l 72 647 l 346 647 l 346 933 l 592 933 l 592 647 l 867 647 l 867 404 l 592 404 l 592 222 l 867 222 l 867 0 l 72 0 z "},"†":{"ha":793,"x_min":63,"x_max":731,"o":"m 63 700 l 282 686 l 274 1010 l 519 1010 l 513 686 l 731 700 l 731 489 l 513 503 l 519 0 l 274 0 l 282 503 l 63 489 l 63 700 z "},"‡":{"ha":793,"x_min":63,"x_max":731,"o":"m 285 417 l 285 593 l 63 579 l 63 783 l 282 769 l 274 1010 l 519 1010 l 513 769 l 731 783 l 731 579 l 510 593 l 510 417 l 731 431 l 731 226 l 513 240 l 519 0 l 274 0 l 282 240 l 63 226 l 63 431 l 285 417 z "},"Ð":{"ha":1024,"x_min":28,"x_max":951,"o":"m 56 619 l 110 619 l 110 1010 l 726 1010 q 830 997 788 1010 q 899 958 872 985 q 939 888 926 931 q 951 783 951 844 l 951 228 q 940 122 951 165 q 901 51 928 78 q 831 12 874 24 q 726 0 788 0 l 110 0 l 110 383 l 28 383 l 56 619 m 590 269 q 630 279 621 269 q 639 318 639 289 l 639 693 q 630 732 639 722 q 589 742 621 742 l 422 742 l 422 619 l 556 619 l 528 383 l 422 383 l 422 269 l 590 269 z "},"Š":{"ha":928,"x_min":69,"x_max":858,"o":"m 139 0 l 83 269 l 507 269 q 522 274 518 269 q 526 290 526 278 l 526 360 q 504 383 526 383 l 279 383 q 176 393 217 383 q 113 426 136 403 q 79 488 89 449 q 69 589 69 528 l 69 792 q 81 896 69 854 q 118 963 92 938 q 187 999 144 988 q 290 1010 229 1010 l 793 1010 l 849 740 l 400 740 q 385 736 389 740 q 382 719 382 732 l 382 642 q 386 625 382 631 q 403 619 390 619 l 647 619 q 749 610 708 619 q 813 578 789 601 q 848 514 838 554 q 858 413 858 474 l 858 213 q 847 110 858 151 q 809 45 835 69 q 741 10 783 21 q 638 0 699 0 l 139 0 m 163 1335 l 383 1335 l 472 1207 l 563 1335 l 786 1335 l 581 1082 l 365 1082 l 163 1335 z "},"Ÿ":{"ha":1054,"x_min":28,"x_max":1026,"o":"m 410 1010 l 535 638 l 646 1010 l 1026 1010 l 704 325 l 704 0 l 354 0 l 354 325 l 28 1010 l 410 1010 m 353 1072 q 255 1113 290 1072 q 219 1207 219 1153 q 255 1298 219 1258 q 353 1338 290 1338 q 453 1298 417 1338 q 489 1207 489 1258 q 453 1113 489 1153 q 353 1072 417 1072 m 717 1072 q 663 1083 688 1072 q 619 1113 638 1094 q 592 1155 601 1131 q 582 1207 582 1179 q 592 1256 582 1232 q 619 1297 601 1279 q 663 1326 638 1315 q 717 1338 688 1338 q 816 1298 782 1338 q 850 1207 850 1258 q 816 1113 850 1153 q 717 1072 782 1072 z "},"–":{"ha":844,"x_min":72,"x_max":772,"o":"m 72 589 l 772 589 l 772 336 l 72 336 l 72 589 z "},"—":{"ha":1122,"x_min":72,"x_max":1050,"o":"m 72 589 l 1050 589 l 1050 336 l 72 336 l 72 589 z "},"Þ":{"ha":975,"x_min":72,"x_max":906,"o":"m 72 1010 l 396 1010 l 396 878 l 688 878 q 790 867 749 878 q 858 833 832 857 q 894 767 883 808 q 906 665 906 726 l 906 347 q 894 244 906 285 q 858 178 883 203 q 790 142 832 153 q 688 132 749 132 l 396 132 l 396 0 l 72 0 l 72 1010 m 543 393 q 592 405 579 393 q 604 453 604 417 l 604 553 q 592 600 604 589 q 543 611 579 611 l 396 611 l 396 393 l 543 393 z "},"ø":{"ha":1108,"x_min":56,"x_max":1106,"o":"m 746 336 q 315 336 532 282 q 349 288 329 313 q 397 240 369 263 q 457 204 424 218 q 531 190 490 190 q 603 204 569 190 q 663 240 636 218 q 711 288 690 263 q 746 336 732 313 m 833 472 l 228 472 l 301 356 q 530 328 417 328 q 758 356 643 329 l 833 472 m 449 629 q 419 707 431 667 q 385 779 408 747 q 367 779 381 785 q 340 765 354 774 q 315 747 325 756 q 307 735 304 738 l 407 610 q 416 609 408 607 q 431 615 424 611 q 444 622 439 618 q 449 629 450 626 m 582 515 l 531 639 l 481 515 l 582 515 m 753 735 q 744 747 754 738 q 721 765 735 756 q 694 779 707 774 q 676 779 681 785 q 640 707 651 747 q 613 629 628 667 q 615 622 610 626 q 629 615 621 618 q 644 609 638 611 q 654 610 651 607 l 753 735 m 913 515 q 883 367 913 436 q 801 245 853 297 q 679 163 749 193 q 531 133 610 133 q 382 163 451 133 q 260 245 313 193 q 178 367 208 297 q 147 515 147 436 q 178 664 147 594 q 260 785 208 733 q 382 867 313 838 q 531 897 451 897 q 679 867 610 897 q 801 785 749 838 q 883 664 853 733 q 913 515 913 594 m 940 515 q 908 675 940 600 q 821 806 876 750 q 690 894 765 861 q 531 926 615 926 q 371 894 446 926 q 240 806 296 861 q 151 675 183 750 q 118 515 118 600 q 151 356 118 431 q 240 226 183 282 q 371 137 296 169 q 531 104 446 104 q 690 137 615 104 q 821 226 765 169 q 908 356 876 282 q 940 515 940 431 m 982 144 l 946 144 l 946 49 l 919 49 l 919 144 l 885 144 l 885 167 l 982 167 l 982 144 m 1006 515 q 968 331 1006 417 q 866 179 931 244 q 715 76 801 114 q 531 39 628 39 q 346 76 432 39 q 195 179 260 114 q 93 331 131 244 q 56 515 56 417 q 93 701 56 614 q 195 852 131 788 q 346 954 260 917 q 531 992 432 992 q 715 954 628 992 q 866 852 801 917 q 968 701 931 788 q 1006 515 1006 614 m 1106 49 l 1085 49 l 1085 144 l 1061 49 l 1039 49 l 1015 144 l 1015 49 l 993 49 l 993 167 l 1028 167 l 1051 75 l 1071 167 l 1106 167 l 1106 49 z "},"þ":{"ha":1108,"x_min":56,"x_max":1106,"o":"m 746 336 q 315 336 532 282 q 349 288 329 313 q 397 240 369 263 q 457 204 424 218 q 531 190 490 190 q 603 204 569 190 q 663 240 636 218 q 711 288 690 263 q 746 336 732 313 m 833 472 l 228 472 l 301 356 q 530 328 417 328 q 758 356 643 329 l 833 472 m 449 629 q 419 707 431 667 q 385 779 408 747 q 367 779 381 785 q 340 765 354 774 q 315 747 325 756 q 307 735 304 738 l 407 610 q 416 609 408 607 q 431 615 424 611 q 444 622 439 618 q 449 629 450 626 m 582 515 l 531 639 l 481 515 l 582 515 m 753 735 q 744 747 754 738 q 721 765 735 756 q 694 779 707 774 q 676 779 681 785 q 640 707 651 747 q 613 629 628 667 q 615 622 610 626 q 629 615 621 618 q 644 609 638 611 q 654 610 651 607 l 753 735 m 913 515 q 883 367 913 436 q 801 245 853 297 q 679 163 749 193 q 531 133 610 133 q 382 163 451 133 q 260 245 313 193 q 178 367 208 297 q 147 515 147 436 q 178 664 147 594 q 260 785 208 733 q 382 867 313 838 q 531 897 451 897 q 679 867 610 897 q 801 785 749 838 q 883 664 853 733 q 913 515 913 594 m 940 515 q 908 675 940 600 q 821 806 876 750 q 690 894 765 861 q 531 926 615 926 q 371 894 446 926 q 240 806 296 861 q 151 675 183 750 q 118 515 118 600 q 151 356 118 431 q 240 226 183 282 q 371 137 296 169 q 531 104 446 104 q 690 137 615 104 q 821 226 765 169 q 908 356 876 282 q 940 515 940 431 m 982 144 l 946 144 l 946 49 l 919 49 l 919 144 l 885 144 l 885 167 l 982 167 l 982 144 m 1006 515 q 968 331 1006 417 q 866 179 931 244 q 715 76 801 114 q 531 39 628 39 q 346 76 432 39 q 195 179 260 114 q 93 331 131 244 q 56 515 56 417 q 93 701 56 614 q 195 852 131 788 q 346 954 260 917 q 531 992 432 992 q 715 954 628 992 q 866 852 801 917 q 968 701 931 788 q 1006 515 1006 614 m 1106 49 l 1085 49 l 1085 144 l 1061 49 l 1039 49 l 1015 144 l 1015 49 l 993 49 l 993 167 l 1028 167 l 1051 75 l 1071 167 l 1106 167 l 1106 49 z "},"‰":{"ha":1563,"x_min":63,"x_max":1500,"o":"m 1296 -17 q 1215 -1 1253 -17 q 1149 43 1178 15 q 1104 108 1121 71 q 1088 189 1088 146 q 1103 269 1088 232 q 1148 335 1119 307 q 1214 378 1176 363 q 1294 394 1251 394 q 1374 378 1336 394 q 1440 335 1411 363 q 1484 269 1468 307 q 1500 189 1500 232 q 1484 110 1500 147 q 1440 44 1468 72 q 1374 -1 1411 15 q 1296 -17 1338 -17 m 1294 125 q 1340 143 1321 125 q 1360 188 1358 161 q 1342 235 1361 215 q 1296 256 1324 254 q 1248 238 1268 257 q 1228 190 1228 218 q 1247 144 1228 163 q 1294 125 1267 125 m 269 613 q 189 628 226 613 q 123 672 151 644 q 78 738 94 700 q 63 818 63 775 q 78 899 63 861 q 122 964 94 936 q 188 1008 150 992 q 268 1024 225 1024 q 349 1008 311 1024 q 414 964 386 992 q 458 899 442 936 q 474 818 474 861 q 458 738 474 775 q 414 672 442 700 q 349 628 386 644 q 269 613 313 613 m 268 753 q 315 771 296 753 q 335 817 335 789 q 316 865 335 844 q 269 885 297 885 q 222 866 242 885 q 201 819 201 847 q 221 772 201 792 q 268 753 240 753 m 269 0 l 642 1010 l 801 1010 l 439 0 l 269 0 m 814 -17 q 733 -1 771 -17 q 667 43 696 15 q 622 108 639 71 q 606 189 606 146 q 622 269 606 232 q 666 335 638 307 q 732 378 694 363 q 813 394 769 394 q 892 378 854 394 q 958 335 929 363 q 1002 269 986 307 q 1018 189 1018 232 q 1002 110 1018 147 q 958 44 986 72 q 892 -1 929 15 q 814 -17 856 -17 m 813 125 q 858 143 839 125 q 878 188 876 161 q 860 235 879 215 q 814 256 842 254 q 766 238 786 257 q 746 190 746 218 q 765 144 746 163 q 813 125 785 125 z "},"¦":{"ha":400,"x_min":69,"x_max":331,"o":"m 69 1149 l 331 1149 l 331 514 l 69 514 l 69 1149 m 69 329 l 331 329 l 331 -292 l 69 -292 l 69 329 z "},"¤":{"ha":861,"x_min":69,"x_max":792,"o":"m 153 342 q 120 419 132 378 q 108 504 108 460 q 120 590 108 549 q 153 668 132 632 l 69 743 l 167 843 l 244 771 q 331 814 285 799 q 431 829 378 829 q 529 814 482 829 q 615 771 576 799 l 694 843 l 792 743 l 708 668 q 741 590 729 631 q 753 504 753 549 q 741 419 753 460 q 708 343 729 379 l 792 265 l 694 167 l 615 239 q 529 196 576 211 q 431 181 482 181 q 332 196 378 181 q 246 239 286 211 l 167 167 l 69 265 l 153 342 m 290 504 q 301 446 290 472 q 331 399 313 419 q 376 368 350 379 q 431 357 401 357 q 485 368 460 357 q 530 399 511 379 q 560 446 549 419 q 571 504 571 472 q 560 563 571 536 q 530 610 549 590 q 485 642 511 631 q 431 653 460 653 q 376 642 401 653 q 331 610 350 631 q 301 563 313 590 q 290 504 290 536 z "},"§":{"ha":835,"x_min":69,"x_max":767,"o":"m 676 776 q 631 803 658 792 q 576 823 604 815 q 519 834 547 831 q 474 838 492 838 q 399 823 424 838 q 376 789 374 808 q 410 752 379 768 q 469 729 442 736 q 542 703 503 718 q 619 667 582 688 q 688 617 656 646 q 739 554 719 589 q 763 478 760 518 q 752 398 767 438 q 703 322 738 358 q 614 256 669 285 q 699 177 672 219 q 725 72 725 135 q 701 -27 725 15 q 635 -97 678 -69 q 533 -139 593 -125 q 397 -153 472 -153 q 252 -138 315 -153 q 126 -94 189 -124 l 143 94 q 254 39 199 51 q 361 26 310 26 q 431 39 413 26 q 449 68 449 51 q 404 115 449 96 q 293 151 360 135 q 203 183 244 164 q 133 231 163 203 q 86 297 103 260 q 69 383 69 335 q 110 508 69 458 q 229 593 151 558 q 136 678 167 626 q 106 786 106 731 q 189 958 106 893 q 447 1024 272 1024 q 573 1013 507 1024 q 699 982 639 1003 l 676 776 m 367 517 q 319 480 340 503 q 299 431 299 457 q 310 398 299 411 q 344 374 322 385 q 398 350 365 363 q 472 319 431 338 q 490 331 479 324 q 510 348 500 338 q 528 371 521 358 q 536 399 536 383 q 523 438 536 422 q 487 467 510 454 q 433 490 464 479 q 367 517 401 501 z "},"¶":{"ha":879,"x_min":56,"x_max":824,"o":"m 824 849 l 790 849 l 790 -139 l 615 -139 l 615 843 l 524 843 l 524 -139 l 350 -139 l 350 471 q 212 490 268 471 q 121 544 156 510 q 71 628 86 579 q 56 739 56 678 q 129 940 56 871 q 332 1010 203 1010 l 824 1010 l 824 849 z "},"ß":{"ha":1010,"x_min":69,"x_max":982,"o":"m 69 697 q 171 949 69 861 q 478 1038 272 1038 q 654 1015 578 1038 q 783 953 731 992 q 862 864 835 915 q 889 757 889 813 q 869 691 889 719 q 828 638 850 663 q 788 592 806 614 q 772 550 769 571 q 789 526 774 538 q 826 500 804 515 q 941 385 900 451 q 982 228 982 319 q 974 156 982 192 q 947 90 967 119 q 856 23 918 46 q 688 0 793 0 l 506 0 l 450 228 l 554 228 q 630 232 599 228 q 667 263 661 236 q 641 317 672 289 q 569 377 610 346 q 494 441 529 408 q 454 508 458 474 q 469 570 450 542 q 511 624 488 599 q 554 674 535 650 q 574 722 574 697 q 562 772 574 753 q 532 801 550 792 q 492 813 514 811 q 447 814 469 815 q 389 785 407 810 q 371 707 371 760 l 371 0 l 69 0 l 69 697 z "},"«":{"ha":897,"x_min":28,"x_max":856,"o":"m 290 375 l 478 0 l 247 0 l 28 375 l 247 750 l 478 750 l 290 375 m 672 375 l 856 0 l 621 0 l 406 375 l 621 750 l 856 750 l 672 375 z "},"»":{"ha":897,"x_min":42,"x_max":869,"o":"m 419 750 l 650 750 l 869 375 l 650 0 l 419 0 l 607 375 l 419 750 m 42 750 l 276 750 l 492 375 l 276 0 l 42 0 l 225 375 l 42 750 z "},"¯":{"ha":818,"x_min":69,"x_max":749,"o":"m 69 1242 l 749 1242 l 749 1086 l 69 1086 l 69 1242 z "},"·":{"ha":449,"x_min":63,"x_max":386,"o":"m 225 354 q 155 360 185 354 q 104 383 125 367 q 73 429 83 400 q 63 503 63 458 q 104 623 63 592 q 225 654 146 654 q 345 623 304 654 q 386 503 386 592 q 376 429 386 458 q 344 383 365 400 q 294 360 324 367 q 225 354 264 354 z "},"º":{"ha":1108,"x_min":56,"x_max":1106,"o":"m 746 336 q 315 336 532 282 q 349 288 329 313 q 397 240 369 263 q 457 204 424 218 q 531 190 490 190 q 603 204 569 190 q 663 240 636 218 q 711 288 690 263 q 746 336 732 313 m 833 472 l 228 472 l 301 356 q 530 328 417 328 q 758 356 643 329 l 833 472 m 449 629 q 419 707 431 667 q 385 779 408 747 q 367 779 381 785 q 340 765 354 774 q 315 747 325 756 q 307 735 304 738 l 407 610 q 416 609 408 607 q 431 615 424 611 q 444 622 439 618 q 449 629 450 626 m 582 515 l 531 639 l 481 515 l 582 515 m 753 735 q 744 747 754 738 q 721 765 735 756 q 694 779 707 774 q 676 779 681 785 q 640 707 651 747 q 613 629 628 667 q 615 622 610 626 q 629 615 621 618 q 644 609 638 611 q 654 610 651 607 l 753 735 m 913 515 q 883 367 913 436 q 801 245 853 297 q 679 163 749 193 q 531 133 610 133 q 382 163 451 133 q 260 245 313 193 q 178 367 208 297 q 147 515 147 436 q 178 664 147 594 q 260 785 208 733 q 382 867 313 838 q 531 897 451 897 q 679 867 610 897 q 801 785 749 838 q 883 664 853 733 q 913 515 913 594 m 940 515 q 908 675 940 600 q 821 806 876 750 q 690 894 765 861 q 531 926 615 926 q 371 894 446 926 q 240 806 296 861 q 151 675 183 750 q 118 515 118 600 q 151 356 118 431 q 240 226 183 282 q 371 137 296 169 q 531 104 446 104 q 690 137 615 104 q 821 226 765 169 q 908 356 876 282 q 940 515 940 431 m 982 144 l 946 144 l 946 49 l 919 49 l 919 144 l 885 144 l 885 167 l 982 167 l 982 144 m 1006 515 q 968 331 1006 417 q 866 179 931 244 q 715 76 801 114 q 531 39 628 39 q 346 76 432 39 q 195 179 260 114 q 93 331 131 244 q 56 515 56 417 q 93 701 56 614 q 195 852 131 788 q 346 954 260 917 q 531 992 432 992 q 715 954 628 992 q 866 852 801 917 q 968 701 931 788 q 1006 515 1006 614 m 1106 49 l 1085 49 l 1085 144 l 1061 49 l 1039 49 l 1015 144 l 1015 49 l 993 49 l 993 167 l 1028 167 l 1051 75 l 1071 167 l 1106 167 l 1106 49 z "},"¬":{"ha":1021,"x_min":69,"x_max":951,"o":"m 69 653 l 951 653 l 951 57 l 699 57 l 699 418 l 69 418 l 69 653 z "},"ª":{"ha":1108,"x_min":56,"x_max":1106,"o":"m 746 336 q 315 336 532 282 q 349 288 329 313 q 397 240 369 263 q 457 204 424 218 q 531 190 490 190 q 603 204 569 190 q 663 240 636 218 q 711 288 690 263 q 746 336 732 313 m 833 472 l 228 472 l 301 356 q 530 328 417 328 q 758 356 643 329 l 833 472 m 449 629 q 419 707 431 667 q 385 779 408 747 q 367 779 381 785 q 340 765 354 774 q 315 747 325 756 q 307 735 304 738 l 407 610 q 416 609 408 607 q 431 615 424 611 q 444 622 439 618 q 449 629 450 626 m 582 515 l 531 639 l 481 515 l 582 515 m 753 735 q 744 747 754 738 q 721 765 735 756 q 694 779 707 774 q 676 779 681 785 q 640 707 651 747 q 613 629 628 667 q 615 622 610 626 q 629 615 621 618 q 644 609 638 611 q 654 610 651 607 l 753 735 m 913 515 q 883 367 913 436 q 801 245 853 297 q 679 163 749 193 q 531 133 610 133 q 382 163 451 133 q 260 245 313 193 q 178 367 208 297 q 147 515 147 436 q 178 664 147 594 q 260 785 208 733 q 382 867 313 838 q 531 897 451 897 q 679 867 610 897 q 801 785 749 838 q 883 664 853 733 q 913 515 913 594 m 940 515 q 908 675 940 600 q 821 806 876 750 q 690 894 765 861 q 531 926 615 926 q 371 894 446 926 q 240 806 296 861 q 151 675 183 750 q 118 515 118 600 q 151 356 118 431 q 240 226 183 282 q 371 137 296 169 q 531 104 446 104 q 690 137 615 104 q 821 226 765 169 q 908 356 876 282 q 940 515 940 431 m 982 144 l 946 144 l 946 49 l 919 49 l 919 144 l 885 144 l 885 167 l 982 167 l 982 144 m 1006 515 q 968 331 1006 417 q 866 179 931 244 q 715 76 801 114 q 531 39 628 39 q 346 76 432 39 q 195 179 260 114 q 93 331 131 244 q 56 515 56 417 q 93 701 56 614 q 195 852 131 788 q 346 954 260 917 q 531 992 432 992 q 715 954 628 992 q 866 852 801 917 q 968 701 931 788 q 1006 515 1006 614 m 1106 49 l 1085 49 l 1085 144 l 1061 49 l 1039 49 l 1015 144 l 1015 49 l 993 49 l 993 167 l 1028 167 l 1051 75 l 1071 167 l 1106 167 l 1106 49 z "},"ÿ":{"ha":1108,"x_min":56,"x_max":1106,"o":"m 746 336 q 315 336 532 282 q 349 288 329 313 q 397 240 369 263 q 457 204 424 218 q 531 190 490 190 q 603 204 569 190 q 663 240 636 218 q 711 288 690 263 q 746 336 732 313 m 833 472 l 228 472 l 301 356 q 530 328 417 328 q 758 356 643 329 l 833 472 m 449 629 q 419 707 431 667 q 385 779 408 747 q 367 779 381 785 q 340 765 354 774 q 315 747 325 756 q 307 735 304 738 l 407 610 q 416 609 408 607 q 431 615 424 611 q 444 622 439 618 q 449 629 450 626 m 582 515 l 531 639 l 481 515 l 582 515 m 753 735 q 744 747 754 738 q 721 765 735 756 q 694 779 707 774 q 676 779 681 785 q 640 707 651 747 q 613 629 628 667 q 615 622 610 626 q 629 615 621 618 q 644 609 638 611 q 654 610 651 607 l 753 735 m 913 515 q 883 367 913 436 q 801 245 853 297 q 679 163 749 193 q 531 133 610 133 q 382 163 451 133 q 260 245 313 193 q 178 367 208 297 q 147 515 147 436 q 178 664 147 594 q 260 785 208 733 q 382 867 313 838 q 531 897 451 897 q 679 867 610 897 q 801 785 749 838 q 883 664 853 733 q 913 515 913 594 m 940 515 q 908 675 940 600 q 821 806 876 750 q 690 894 765 861 q 531 926 615 926 q 371 894 446 926 q 240 806 296 861 q 151 675 183 750 q 118 515 118 600 q 151 356 118 431 q 240 226 183 282 q 371 137 296 169 q 531 104 446 104 q 690 137 615 104 q 821 226 765 169 q 908 356 876 282 q 940 515 940 431 m 982 144 l 946 144 l 946 49 l 919 49 l 919 144 l 885 144 l 885 167 l 982 167 l 982 144 m 1006 515 q 968 331 1006 417 q 866 179 931 244 q 715 76 801 114 q 531 39 628 39 q 346 76 432 39 q 195 179 260 114 q 93 331 131 244 q 56 515 56 417 q 93 701 56 614 q 195 852 131 788 q 346 954 260 917 q 531 992 432 992 q 715 954 628 992 q 866 852 801 917 q 968 701 931 788 q 1006 515 1006 614 m 1106 49 l 1085 49 l 1085 144 l 1061 49 l 1039 49 l 1015 144 l 1015 49 l 993 49 l 993 167 l 1028 167 l 1051 75 l 1071 167 l 1106 167 l 1106 49 z "},"ð":{"ha":1108,"x_min":56,"x_max":1106,"o":"m 746 336 q 315 336 532 282 q 349 288 329 313 q 397 240 369 263 q 457 204 424 218 q 531 190 490 190 q 603 204 569 190 q 663 240 636 218 q 711 288 690 263 q 746 336 732 313 m 833 472 l 228 472 l 301 356 q 530 328 417 328 q 758 356 643 329 l 833 472 m 449 629 q 419 707 431 667 q 385 779 408 747 q 367 779 381 785 q 340 765 354 774 q 315 747 325 756 q 307 735 304 738 l 407 610 q 416 609 408 607 q 431 615 424 611 q 444 622 439 618 q 449 629 450 626 m 582 515 l 531 639 l 481 515 l 582 515 m 753 735 q 744 747 754 738 q 721 765 735 756 q 694 779 707 774 q 676 779 681 785 q 640 707 651 747 q 613 629 628 667 q 615 622 610 626 q 629 615 621 618 q 644 609 638 611 q 654 610 651 607 l 753 735 m 913 515 q 883 367 913 436 q 801 245 853 297 q 679 163 749 193 q 531 133 610 133 q 382 163 451 133 q 260 245 313 193 q 178 367 208 297 q 147 515 147 436 q 178 664 147 594 q 260 785 208 733 q 382 867 313 838 q 531 897 451 897 q 679 867 610 897 q 801 785 749 838 q 883 664 853 733 q 913 515 913 594 m 940 515 q 908 675 940 600 q 821 806 876 750 q 690 894 765 861 q 531 926 615 926 q 371 894 446 926 q 240 806 296 861 q 151 675 183 750 q 118 515 118 600 q 151 356 118 431 q 240 226 183 282 q 371 137 296 169 q 531 104 446 104 q 690 137 615 104 q 821 226 765 169 q 908 356 876 282 q 940 515 940 431 m 982 144 l 946 144 l 946 49 l 919 49 l 919 144 l 885 144 l 885 167 l 982 167 l 982 144 m 1006 515 q 968 331 1006 417 q 866 179 931 244 q 715 76 801 114 q 531 39 628 39 q 346 76 432 39 q 195 179 260 114 q 93 331 131 244 q 56 515 56 417 q 93 701 56 614 q 195 852 131 788 q 346 954 260 917 q 531 992 432 992 q 715 954 628 992 q 866 852 801 917 q 968 701 931 788 q 1006 515 1006 614 m 1106 49 l 1085 49 l 1085 144 l 1061 49 l 1039 49 l 1015 144 l 1015 49 l 993 49 l 993 167 l 1028 167 l 1051 75 l 1071 167 l 1106 167 l 1106 49 z "},"‹":{"ha":519,"x_min":28,"x_max":478,"o":"m 290 375 l 478 0 l 247 0 l 28 375 l 247 750 l 478 750 l 290 375 z "},"›":{"ha":519,"x_min":42,"x_max":492,"o":"m 42 750 l 272 750 l 492 375 l 272 0 l 42 0 l 229 375 l 42 750 z "},"š":{"ha":1108,"x_min":56,"x_max":1106,"o":"m 746 336 q 315 336 532 282 q 349 288 329 313 q 397 240 369 263 q 457 204 424 218 q 531 190 490 190 q 603 204 569 190 q 663 240 636 218 q 711 288 690 263 q 746 336 732 313 m 833 472 l 228 472 l 301 356 q 530 328 417 328 q 758 356 643 329 l 833 472 m 449 629 q 419 707 431 667 q 385 779 408 747 q 367 779 381 785 q 340 765 354 774 q 315 747 325 756 q 307 735 304 738 l 407 610 q 416 609 408 607 q 431 615 424 611 q 444 622 439 618 q 449 629 450 626 m 582 515 l 531 639 l 481 515 l 582 515 m 753 735 q 744 747 754 738 q 721 765 735 756 q 694 779 707 774 q 676 779 681 785 q 640 707 651 747 q 613 629 628 667 q 615 622 610 626 q 629 615 621 618 q 644 609 638 611 q 654 610 651 607 l 753 735 m 913 515 q 883 367 913 436 q 801 245 853 297 q 679 163 749 193 q 531 133 610 133 q 382 163 451 133 q 260 245 313 193 q 178 367 208 297 q 147 515 147 436 q 178 664 147 594 q 260 785 208 733 q 382 867 313 838 q 531 897 451 897 q 679 867 610 897 q 801 785 749 838 q 883 664 853 733 q 913 515 913 594 m 940 515 q 908 675 940 600 q 821 806 876 750 q 690 894 765 861 q 531 926 615 926 q 371 894 446 926 q 240 806 296 861 q 151 675 183 750 q 118 515 118 600 q 151 356 118 431 q 240 226 183 282 q 371 137 296 169 q 531 104 446 104 q 690 137 615 104 q 821 226 765 169 q 908 356 876 282 q 940 515 940 431 m 982 144 l 946 144 l 946 49 l 919 49 l 919 144 l 885 144 l 885 167 l 982 167 l 982 144 m 1006 515 q 968 331 1006 417 q 866 179 931 244 q 715 76 801 114 q 531 39 628 39 q 346 76 432 39 q 195 179 260 114 q 93 331 131 244 q 56 515 56 417 q 93 701 56 614 q 195 852 131 788 q 346 954 260 917 q 531 992 432 992 q 715 954 628 992 q 866 852 801 917 q 968 701 931 788 q 1006 515 1006 614 m 1106 49 l 1085 49 l 1085 144 l 1061 49 l 1039 49 l 1015 144 l 1015 49 l 993 49 l 993 167 l 1028 167 l 1051 75 l 1071 167 l 1106 167 l 1106 49 z "},"œ":{"ha":1108,"x_min":56,"x_max":1106,"o":"m 746 336 q 315 336 532 282 q 349 288 329 313 q 397 240 369 263 q 457 204 424 218 q 531 190 490 190 q 603 204 569 190 q 663 240 636 218 q 711 288 690 263 q 746 336 732 313 m 833 472 l 228 472 l 301 356 q 530 328 417 328 q 758 356 643 329 l 833 472 m 449 629 q 419 707 431 667 q 385 779 408 747 q 367 779 381 785 q 340 765 354 774 q 315 747 325 756 q 307 735 304 738 l 407 610 q 416 609 408 607 q 431 615 424 611 q 444 622 439 618 q 449 629 450 626 m 582 515 l 531 639 l 481 515 l 582 515 m 753 735 q 744 747 754 738 q 721 765 735 756 q 694 779 707 774 q 676 779 681 785 q 640 707 651 747 q 613 629 628 667 q 615 622 610 626 q 629 615 621 618 q 644 609 638 611 q 654 610 651 607 l 753 735 m 913 515 q 883 367 913 436 q 801 245 853 297 q 679 163 749 193 q 531 133 610 133 q 382 163 451 133 q 260 245 313 193 q 178 367 208 297 q 147 515 147 436 q 178 664 147 594 q 260 785 208 733 q 382 867 313 838 q 531 897 451 897 q 679 867 610 897 q 801 785 749 838 q 883 664 853 733 q 913 515 913 594 m 940 515 q 908 675 940 600 q 821 806 876 750 q 690 894 765 861 q 531 926 615 926 q 371 894 446 926 q 240 806 296 861 q 151 675 183 750 q 118 515 118 600 q 151 356 118 431 q 240 226 183 282 q 371 137 296 169 q 531 104 446 104 q 690 137 615 104 q 821 226 765 169 q 908 356 876 282 q 940 515 940 431 m 982 144 l 946 144 l 946 49 l 919 49 l 919 144 l 885 144 l 885 167 l 982 167 l 982 144 m 1006 515 q 968 331 1006 417 q 866 179 931 244 q 715 76 801 114 q 531 39 628 39 q 346 76 432 39 q 195 179 260 114 q 93 331 131 244 q 56 515 56 417 q 93 701 56 614 q 195 852 131 788 q 346 954 260 917 q 531 992 432 992 q 715 954 628 992 q 866 852 801 917 q 968 701 931 788 q 1006 515 1006 614 m 1106 49 l 1085 49 l 1085 144 l 1061 49 l 1039 49 l 1015 144 l 1015 49 l 993 49 l 993 167 l 1028 167 l 1051 75 l 1071 167 l 1106 167 l 1106 49 z "},"µ":{"ha":1108,"x_min":56,"x_max":1106,"o":"m 746 336 q 315 336 532 282 q 349 288 329 313 q 397 240 369 263 q 457 204 424 218 q 531 190 490 190 q 603 204 569 190 q 663 240 636 218 q 711 288 690 263 q 746 336 732 313 m 833 472 l 228 472 l 301 356 q 530 328 417 328 q 758 356 643 329 l 833 472 m 449 629 q 419 707 431 667 q 385 779 408 747 q 367 779 381 785 q 340 765 354 774 q 315 747 325 756 q 307 735 304 738 l 407 610 q 416 609 408 607 q 431 615 424 611 q 444 622 439 618 q 449 629 450 626 m 582 515 l 531 639 l 481 515 l 582 515 m 753 735 q 744 747 754 738 q 721 765 735 756 q 694 779 707 774 q 676 779 681 785 q 640 707 651 747 q 613 629 628 667 q 615 622 610 626 q 629 615 621 618 q 644 609 638 611 q 654 610 651 607 l 753 735 m 913 515 q 883 367 913 436 q 801 245 853 297 q 679 163 749 193 q 531 133 610 133 q 382 163 451 133 q 260 245 313 193 q 178 367 208 297 q 147 515 147 436 q 178 664 147 594 q 260 785 208 733 q 382 867 313 838 q 531 897 451 897 q 679 867 610 897 q 801 785 749 838 q 883 664 853 733 q 913 515 913 594 m 940 515 q 908 675 940 600 q 821 806 876 750 q 690 894 765 861 q 531 926 615 926 q 371 894 446 926 q 240 806 296 861 q 151 675 183 750 q 118 515 118 600 q 151 356 118 431 q 240 226 183 282 q 371 137 296 169 q 531 104 446 104 q 690 137 615 104 q 821 226 765 169 q 908 356 876 282 q 940 515 940 431 m 982 144 l 946 144 l 946 49 l 919 49 l 919 144 l 885 144 l 885 167 l 982 167 l 982 144 m 1006 515 q 968 331 1006 417 q 866 179 931 244 q 715 76 801 114 q 531 39 628 39 q 346 76 432 39 q 195 179 260 114 q 93 331 131 244 q 56 515 56 417 q 93 701 56 614 q 195 852 131 788 q 346 954 260 917 q 531 992 432 992 q 715 954 628 992 q 866 852 801 917 q 968 701 931 788 q 1006 515 1006 614 m 1106 49 l 1085 49 l 1085 144 l 1061 49 l 1039 49 l 1015 144 l 1015 49 l 993 49 l 993 167 l 1028 167 l 1051 75 l 1071 167 l 1106 167 l 1106 49 z "},"μ":{"ha":1108,"x_min":56,"x_max":1106,"o":"m 746 336 q 315 336 532 282 q 349 288 329 313 q 397 240 369 263 q 457 204 424 218 q 531 190 490 190 q 603 204 569 190 q 663 240 636 218 q 711 288 690 263 q 746 336 732 313 m 833 472 l 228 472 l 301 356 q 530 328 417 328 q 758 356 643 329 l 833 472 m 449 629 q 419 707 431 667 q 385 779 408 747 q 367 779 381 785 q 340 765 354 774 q 315 747 325 756 q 307 735 304 738 l 407 610 q 416 609 408 607 q 431 615 424 611 q 444 622 439 618 q 449 629 450 626 m 582 515 l 531 639 l 481 515 l 582 515 m 753 735 q 744 747 754 738 q 721 765 735 756 q 694 779 707 774 q 676 779 681 785 q 640 707 651 747 q 613 629 628 667 q 615 622 610 626 q 629 615 621 618 q 644 609 638 611 q 654 610 651 607 l 753 735 m 913 515 q 883 367 913 436 q 801 245 853 297 q 679 163 749 193 q 531 133 610 133 q 382 163 451 133 q 260 245 313 193 q 178 367 208 297 q 147 515 147 436 q 178 664 147 594 q 260 785 208 733 q 382 867 313 838 q 531 897 451 897 q 679 867 610 897 q 801 785 749 838 q 883 664 853 733 q 913 515 913 594 m 940 515 q 908 675 940 600 q 821 806 876 750 q 690 894 765 861 q 531 926 615 926 q 371 894 446 926 q 240 806 296 861 q 151 675 183 750 q 118 515 118 600 q 151 356 118 431 q 240 226 183 282 q 371 137 296 169 q 531 104 446 104 q 690 137 615 104 q 821 226 765 169 q 908 356 876 282 q 940 515 940 431 m 982 144 l 946 144 l 946 49 l 919 49 l 919 144 l 885 144 l 885 167 l 982 167 l 982 144 m 1006 515 q 968 331 1006 417 q 866 179 931 244 q 715 76 801 114 q 531 39 628 39 q 346 76 432 39 q 195 179 260 114 q 93 331 131 244 q 56 515 56 417 q 93 701 56 614 q 195 852 131 788 q 346 954 260 917 q 531 992 432 992 q 715 954 628 992 q 866 852 801 917 q 968 701 931 788 q 1006 515 1006 614 m 1106 49 l 1085 49 l 1085 144 l 1061 49 l 1039 49 l 1015 144 l 1015 49 l 993 49 l 993 167 l 1028 167 l 1051 75 l 1071 167 l 1106 167 l 1106 49 z "},"ù":{"ha":1108,"x_min":56,"x_max":1106,"o":"m 746 336 q 315 336 532 282 q 349 288 329 313 q 397 240 369 263 q 457 204 424 218 q 531 190 490 190 q 603 204 569 190 q 663 240 636 218 q 711 288 690 263 q 746 336 732 313 m 833 472 l 228 472 l 301 356 q 530 328 417 328 q 758 356 643 329 l 833 472 m 449 629 q 419 707 431 667 q 385 779 408 747 q 367 779 381 785 q 340 765 354 774 q 315 747 325 756 q 307 735 304 738 l 407 610 q 416 609 408 607 q 431 615 424 611 q 444 622 439 618 q 449 629 450 626 m 582 515 l 531 639 l 481 515 l 582 515 m 753 735 q 744 747 754 738 q 721 765 735 756 q 694 779 707 774 q 676 779 681 785 q 640 707 651 747 q 613 629 628 667 q 615 622 610 626 q 629 615 621 618 q 644 609 638 611 q 654 610 651 607 l 753 735 m 913 515 q 883 367 913 436 q 801 245 853 297 q 679 163 749 193 q 531 133 610 133 q 382 163 451 133 q 260 245 313 193 q 178 367 208 297 q 147 515 147 436 q 178 664 147 594 q 260 785 208 733 q 382 867 313 838 q 531 897 451 897 q 679 867 610 897 q 801 785 749 838 q 883 664 853 733 q 913 515 913 594 m 940 515 q 908 675 940 600 q 821 806 876 750 q 690 894 765 861 q 531 926 615 926 q 371 894 446 926 q 240 806 296 861 q 151 675 183 750 q 118 515 118 600 q 151 356 118 431 q 240 226 183 282 q 371 137 296 169 q 531 104 446 104 q 690 137 615 104 q 821 226 765 169 q 908 356 876 282 q 940 515 940 431 m 982 144 l 946 144 l 946 49 l 919 49 l 919 144 l 885 144 l 885 167 l 982 167 l 982 144 m 1006 515 q 968 331 1006 417 q 866 179 931 244 q 715 76 801 114 q 531 39 628 39 q 346 76 432 39 q 195 179 260 114 q 93 331 131 244 q 56 515 56 417 q 93 701 56 614 q 195 852 131 788 q 346 954 260 917 q 531 992 432 992 q 715 954 628 992 q 866 852 801 917 q 968 701 931 788 q 1006 515 1006 614 m 1106 49 l 1085 49 l 1085 144 l 1061 49 l 1039 49 l 1015 144 l 1015 49 l 993 49 l 993 167 l 1028 167 l 1051 75 l 1071 167 l 1106 167 l 1106 49 z "},"ú":{"ha":1108,"x_min":56,"x_max":1106,"o":"m 746 336 q 315 336 532 282 q 349 288 329 313 q 397 240 369 263 q 457 204 424 218 q 531 190 490 190 q 603 204 569 190 q 663 240 636 218 q 711 288 690 263 q 746 336 732 313 m 833 472 l 228 472 l 301 356 q 530 328 417 328 q 758 356 643 329 l 833 472 m 449 629 q 419 707 431 667 q 385 779 408 747 q 367 779 381 785 q 340 765 354 774 q 315 747 325 756 q 307 735 304 738 l 407 610 q 416 609 408 607 q 431 615 424 611 q 444 622 439 618 q 449 629 450 626 m 582 515 l 531 639 l 481 515 l 582 515 m 753 735 q 744 747 754 738 q 721 765 735 756 q 694 779 707 774 q 676 779 681 785 q 640 707 651 747 q 613 629 628 667 q 615 622 610 626 q 629 615 621 618 q 644 609 638 611 q 654 610 651 607 l 753 735 m 913 515 q 883 367 913 436 q 801 245 853 297 q 679 163 749 193 q 531 133 610 133 q 382 163 451 133 q 260 245 313 193 q 178 367 208 297 q 147 515 147 436 q 178 664 147 594 q 260 785 208 733 q 382 867 313 838 q 531 897 451 897 q 679 867 610 897 q 801 785 749 838 q 883 664 853 733 q 913 515 913 594 m 940 515 q 908 675 940 600 q 821 806 876 750 q 690 894 765 861 q 531 926 615 926 q 371 894 446 926 q 240 806 296 861 q 151 675 183 750 q 118 515 118 600 q 151 356 118 431 q 240 226 183 282 q 371 137 296 169 q 531 104 446 104 q 690 137 615 104 q 821 226 765 169 q 908 356 876 282 q 940 515 940 431 m 982 144 l 946 144 l 946 49 l 919 49 l 919 144 l 885 144 l 885 167 l 982 167 l 982 144 m 1006 515 q 968 331 1006 417 q 866 179 931 244 q 715 76 801 114 q 531 39 628 39 q 346 76 432 39 q 195 179 260 114 q 93 331 131 244 q 56 515 56 417 q 93 701 56 614 q 195 852 131 788 q 346 954 260 917 q 531 992 432 992 q 715 954 628 992 q 866 852 801 917 q 968 701 931 788 q 1006 515 1006 614 m 1106 49 l 1085 49 l 1085 144 l 1061 49 l 1039 49 l 1015 144 l 1015 49 l 993 49 l 993 167 l 1028 167 l 1051 75 l 1071 167 l 1106 167 l 1106 49 z "},"û":{"ha":1108,"x_min":56,"x_max":1106,"o":"m 746 336 q 315 336 532 282 q 349 288 329 313 q 397 240 369 263 q 457 204 424 218 q 531 190 490 190 q 603 204 569 190 q 663 240 636 218 q 711 288 690 263 q 746 336 732 313 m 833 472 l 228 472 l 301 356 q 530 328 417 328 q 758 356 643 329 l 833 472 m 449 629 q 419 707 431 667 q 385 779 408 747 q 367 779 381 785 q 340 765 354 774 q 315 747 325 756 q 307 735 304 738 l 407 610 q 416 609 408 607 q 431 615 424 611 q 444 622 439 618 q 449 629 450 626 m 582 515 l 531 639 l 481 515 l 582 515 m 753 735 q 744 747 754 738 q 721 765 735 756 q 694 779 707 774 q 676 779 681 785 q 640 707 651 747 q 613 629 628 667 q 615 622 610 626 q 629 615 621 618 q 644 609 638 611 q 654 610 651 607 l 753 735 m 913 515 q 883 367 913 436 q 801 245 853 297 q 679 163 749 193 q 531 133 610 133 q 382 163 451 133 q 260 245 313 193 q 178 367 208 297 q 147 515 147 436 q 178 664 147 594 q 260 785 208 733 q 382 867 313 838 q 531 897 451 897 q 679 867 610 897 q 801 785 749 838 q 883 664 853 733 q 913 515 913 594 m 940 515 q 908 675 940 600 q 821 806 876 750 q 690 894 765 861 q 531 926 615 926 q 371 894 446 926 q 240 806 296 861 q 151 675 183 750 q 118 515 118 600 q 151 356 118 431 q 240 226 183 282 q 371 137 296 169 q 531 104 446 104 q 690 137 615 104 q 821 226 765 169 q 908 356 876 282 q 940 515 940 431 m 982 144 l 946 144 l 946 49 l 919 49 l 919 144 l 885 144 l 885 167 l 982 167 l 982 144 m 1006 515 q 968 331 1006 417 q 866 179 931 244 q 715 76 801 114 q 531 39 628 39 q 346 76 432 39 q 195 179 260 114 q 93 331 131 244 q 56 515 56 417 q 93 701 56 614 q 195 852 131 788 q 346 954 260 917 q 531 992 432 992 q 715 954 628 992 q 866 852 801 917 q 968 701 931 788 q 1006 515 1006 614 m 1106 49 l 1085 49 l 1085 144 l 1061 49 l 1039 49 l 1015 144 l 1015 49 l 993 49 l 993 167 l 1028 167 l 1051 75 l 1071 167 l 1106 167 l 1106 49 z "},"ü":{"ha":1108,"x_min":56,"x_max":1106,"o":"m 746 336 q 315 336 532 282 q 349 288 329 313 q 397 240 369 263 q 457 204 424 218 q 531 190 490 190 q 603 204 569 190 q 663 240 636 218 q 711 288 690 263 q 746 336 732 313 m 833 472 l 228 472 l 301 356 q 530 328 417 328 q 758 356 643 329 l 833 472 m 449 629 q 419 707 431 667 q 385 779 408 747 q 367 779 381 785 q 340 765 354 774 q 315 747 325 756 q 307 735 304 738 l 407 610 q 416 609 408 607 q 431 615 424 611 q 444 622 439 618 q 449 629 450 626 m 582 515 l 531 639 l 481 515 l 582 515 m 753 735 q 744 747 754 738 q 721 765 735 756 q 694 779 707 774 q 676 779 681 785 q 640 707 651 747 q 613 629 628 667 q 615 622 610 626 q 629 615 621 618 q 644 609 638 611 q 654 610 651 607 l 753 735 m 913 515 q 883 367 913 436 q 801 245 853 297 q 679 163 749 193 q 531 133 610 133 q 382 163 451 133 q 260 245 313 193 q 178 367 208 297 q 147 515 147 436 q 178 664 147 594 q 260 785 208 733 q 382 867 313 838 q 531 897 451 897 q 679 867 610 897 q 801 785 749 838 q 883 664 853 733 q 913 515 913 594 m 940 515 q 908 675 940 600 q 821 806 876 750 q 690 894 765 861 q 531 926 615 926 q 371 894 446 926 q 240 806 296 861 q 151 675 183 750 q 118 515 118 600 q 151 356 118 431 q 240 226 183 282 q 371 137 296 169 q 531 104 446 104 q 690 137 615 104 q 821 226 765 169 q 908 356 876 282 q 940 515 940 431 m 982 144 l 946 144 l 946 49 l 919 49 l 919 144 l 885 144 l 885 167 l 982 167 l 982 144 m 1006 515 q 968 331 1006 417 q 866 179 931 244 q 715 76 801 114 q 531 39 628 39 q 346 76 432 39 q 195 179 260 114 q 93 331 131 244 q 56 515 56 417 q 93 701 56 614 q 195 852 131 788 q 346 954 260 917 q 531 992 432 992 q 715 954 628 992 q 866 852 801 917 q 968 701 931 788 q 1006 515 1006 614 m 1106 49 l 1085 49 l 1085 144 l 1061 49 l 1039 49 l 1015 144 l 1015 49 l 993 49 l 993 167 l 1028 167 l 1051 75 l 1071 167 l 1106 167 l 1106 49 z "},"ý":{"ha":1108,"x_min":56,"x_max":1106,"o":"m 746 336 q 315 336 532 282 q 349 288 329 313 q 397 240 369 263 q 457 204 424 218 q 531 190 490 190 q 603 204 569 190 q 663 240 636 218 q 711 288 690 263 q 746 336 732 313 m 833 472 l 228 472 l 301 356 q 530 328 417 328 q 758 356 643 329 l 833 472 m 449 629 q 419 707 431 667 q 385 779 408 747 q 367 779 381 785 q 340 765 354 774 q 315 747 325 756 q 307 735 304 738 l 407 610 q 416 609 408 607 q 431 615 424 611 q 444 622 439 618 q 449 629 450 626 m 582 515 l 531 639 l 481 515 l 582 515 m 753 735 q 744 747 754 738 q 721 765 735 756 q 694 779 707 774 q 676 779 681 785 q 640 707 651 747 q 613 629 628 667 q 615 622 610 626 q 629 615 621 618 q 644 609 638 611 q 654 610 651 607 l 753 735 m 913 515 q 883 367 913 436 q 801 245 853 297 q 679 163 749 193 q 531 133 610 133 q 382 163 451 133 q 260 245 313 193 q 178 367 208 297 q 147 515 147 436 q 178 664 147 594 q 260 785 208 733 q 382 867 313 838 q 531 897 451 897 q 679 867 610 897 q 801 785 749 838 q 883 664 853 733 q 913 515 913 594 m 940 515 q 908 675 940 600 q 821 806 876 750 q 690 894 765 861 q 531 926 615 926 q 371 894 446 926 q 240 806 296 861 q 151 675 183 750 q 118 515 118 600 q 151 356 118 431 q 240 226 183 282 q 371 137 296 169 q 531 104 446 104 q 690 137 615 104 q 821 226 765 169 q 908 356 876 282 q 940 515 940 431 m 982 144 l 946 144 l 946 49 l 919 49 l 919 144 l 885 144 l 885 167 l 982 167 l 982 144 m 1006 515 q 968 331 1006 417 q 866 179 931 244 q 715 76 801 114 q 531 39 628 39 q 346 76 432 39 q 195 179 260 114 q 93 331 131 244 q 56 515 56 417 q 93 701 56 614 q 195 852 131 788 q 346 954 260 917 q 531 992 432 992 q 715 954 628 992 q 866 852 801 917 q 968 701 931 788 q 1006 515 1006 614 m 1106 49 l 1085 49 l 1085 144 l 1061 49 l 1039 49 l 1015 144 l 1015 49 l 993 49 l 993 167 l 1028 167 l 1051 75 l 1071 167 l 1106 167 l 1106 49 z "},"ö":{"ha":1108,"x_min":56,"x_max":1106,"o":"m 746 336 q 315 336 532 282 q 349 288 329 313 q 397 240 369 263 q 457 204 424 218 q 531 190 490 190 q 603 204 569 190 q 663 240 636 218 q 711 288 690 263 q 746 336 732 313 m 833 472 l 228 472 l 301 356 q 530 328 417 328 q 758 356 643 329 l 833 472 m 449 629 q 419 707 431 667 q 385 779 408 747 q 367 779 381 785 q 340 765 354 774 q 315 747 325 756 q 307 735 304 738 l 407 610 q 416 609 408 607 q 431 615 424 611 q 444 622 439 618 q 449 629 450 626 m 582 515 l 531 639 l 481 515 l 582 515 m 753 735 q 744 747 754 738 q 721 765 735 756 q 694 779 707 774 q 676 779 681 785 q 640 707 651 747 q 613 629 628 667 q 615 622 610 626 q 629 615 621 618 q 644 609 638 611 q 654 610 651 607 l 753 735 m 913 515 q 883 367 913 436 q 801 245 853 297 q 679 163 749 193 q 531 133 610 133 q 382 163 451 133 q 260 245 313 193 q 178 367 208 297 q 147 515 147 436 q 178 664 147 594 q 260 785 208 733 q 382 867 313 838 q 531 897 451 897 q 679 867 610 897 q 801 785 749 838 q 883 664 853 733 q 913 515 913 594 m 940 515 q 908 675 940 600 q 821 806 876 750 q 690 894 765 861 q 531 926 615 926 q 371 894 446 926 q 240 806 296 861 q 151 675 183 750 q 118 515 118 600 q 151 356 118 431 q 240 226 183 282 q 371 137 296 169 q 531 104 446 104 q 690 137 615 104 q 821 226 765 169 q 908 356 876 282 q 940 515 940 431 m 982 144 l 946 144 l 946 49 l 919 49 l 919 144 l 885 144 l 885 167 l 982 167 l 982 144 m 1006 515 q 968 331 1006 417 q 866 179 931 244 q 715 76 801 114 q 531 39 628 39 q 346 76 432 39 q 195 179 260 114 q 93 331 131 244 q 56 515 56 417 q 93 701 56 614 q 195 852 131 788 q 346 954 260 917 q 531 992 432 992 q 715 954 628 992 q 866 852 801 917 q 968 701 931 788 q 1006 515 1006 614 m 1106 49 l 1085 49 l 1085 144 l 1061 49 l 1039 49 l 1015 144 l 1015 49 l 993 49 l 993 167 l 1028 167 l 1051 75 l 1071 167 l 1106 167 l 1106 49 z "},"õ":{"ha":1108,"x_min":56,"x_max":1106,"o":"m 746 336 q 315 336 532 282 q 349 288 329 313 q 397 240 369 263 q 457 204 424 218 q 531 190 490 190 q 603 204 569 190 q 663 240 636 218 q 711 288 690 263 q 746 336 732 313 m 833 472 l 228 472 l 301 356 q 530 328 417 328 q 758 356 643 329 l 833 472 m 449 629 q 419 707 431 667 q 385 779 408 747 q 367 779 381 785 q 340 765 354 774 q 315 747 325 756 q 307 735 304 738 l 407 610 q 416 609 408 607 q 431 615 424 611 q 444 622 439 618 q 449 629 450 626 m 582 515 l 531 639 l 481 515 l 582 515 m 753 735 q 744 747 754 738 q 721 765 735 756 q 694 779 707 774 q 676 779 681 785 q 640 707 651 747 q 613 629 628 667 q 615 622 610 626 q 629 615 621 618 q 644 609 638 611 q 654 610 651 607 l 753 735 m 913 515 q 883 367 913 436 q 801 245 853 297 q 679 163 749 193 q 531 133 610 133 q 382 163 451 133 q 260 245 313 193 q 178 367 208 297 q 147 515 147 436 q 178 664 147 594 q 260 785 208 733 q 382 867 313 838 q 531 897 451 897 q 679 867 610 897 q 801 785 749 838 q 883 664 853 733 q 913 515 913 594 m 940 515 q 908 675 940 600 q 821 806 876 750 q 690 894 765 861 q 531 926 615 926 q 371 894 446 926 q 240 806 296 861 q 151 675 183 750 q 118 515 118 600 q 151 356 118 431 q 240 226 183 282 q 371 137 296 169 q 531 104 446 104 q 690 137 615 104 q 821 226 765 169 q 908 356 876 282 q 940 515 940 431 m 982 144 l 946 144 l 946 49 l 919 49 l 919 144 l 885 144 l 885 167 l 982 167 l 982 144 m 1006 515 q 968 331 1006 417 q 866 179 931 244 q 715 76 801 114 q 531 39 628 39 q 346 76 432 39 q 195 179 260 114 q 93 331 131 244 q 56 515 56 417 q 93 701 56 614 q 195 852 131 788 q 346 954 260 917 q 531 992 432 992 q 715 954 628 992 q 866 852 801 917 q 968 701 931 788 q 1006 515 1006 614 m 1106 49 l 1085 49 l 1085 144 l 1061 49 l 1039 49 l 1015 144 l 1015 49 l 993 49 l 993 167 l 1028 167 l 1051 75 l 1071 167 l 1106 167 l 1106 49 z "},"ô":{"ha":1108,"x_min":56,"x_max":1106,"o":"m 746 336 q 315 336 532 282 q 349 288 329 313 q 397 240 369 263 q 457 204 424 218 q 531 190 490 190 q 603 204 569 190 q 663 240 636 218 q 711 288 690 263 q 746 336 732 313 m 833 472 l 228 472 l 301 356 q 530 328 417 328 q 758 356 643 329 l 833 472 m 449 629 q 419 707 431 667 q 385 779 408 747 q 367 779 381 785 q 340 765 354 774 q 315 747 325 756 q 307 735 304 738 l 407 610 q 416 609 408 607 q 431 615 424 611 q 444 622 439 618 q 449 629 450 626 m 582 515 l 531 639 l 481 515 l 582 515 m 753 735 q 744 747 754 738 q 721 765 735 756 q 694 779 707 774 q 676 779 681 785 q 640 707 651 747 q 613 629 628 667 q 615 622 610 626 q 629 615 621 618 q 644 609 638 611 q 654 610 651 607 l 753 735 m 913 515 q 883 367 913 436 q 801 245 853 297 q 679 163 749 193 q 531 133 610 133 q 382 163 451 133 q 260 245 313 193 q 178 367 208 297 q 147 515 147 436 q 178 664 147 594 q 260 785 208 733 q 382 867 313 838 q 531 897 451 897 q 679 867 610 897 q 801 785 749 838 q 883 664 853 733 q 913 515 913 594 m 940 515 q 908 675 940 600 q 821 806 876 750 q 690 894 765 861 q 531 926 615 926 q 371 894 446 926 q 240 806 296 861 q 151 675 183 750 q 118 515 118 600 q 151 356 118 431 q 240 226 183 282 q 371 137 296 169 q 531 104 446 104 q 690 137 615 104 q 821 226 765 169 q 908 356 876 282 q 940 515 940 431 m 982 144 l 946 144 l 946 49 l 919 49 l 919 144 l 885 144 l 885 167 l 982 167 l 982 144 m 1006 515 q 968 331 1006 417 q 866 179 931 244 q 715 76 801 114 q 531 39 628 39 q 346 76 432 39 q 195 179 260 114 q 93 331 131 244 q 56 515 56 417 q 93 701 56 614 q 195 852 131 788 q 346 954 260 917 q 531 992 432 992 q 715 954 628 992 q 866 852 801 917 q 968 701 931 788 q 1006 515 1006 614 m 1106 49 l 1085 49 l 1085 144 l 1061 49 l 1039 49 l 1015 144 l 1015 49 l 993 49 l 993 167 l 1028 167 l 1051 75 l 1071 167 l 1106 167 l 1106 49 z "},"ó":{"ha":1108,"x_min":56,"x_max":1106,"o":"m 746 336 q 315 336 532 282 q 349 288 329 313 q 397 240 369 263 q 457 204 424 218 q 531 190 490 190 q 603 204 569 190 q 663 240 636 218 q 711 288 690 263 q 746 336 732 313 m 833 472 l 228 472 l 301 356 q 530 328 417 328 q 758 356 643 329 l 833 472 m 449 629 q 419 707 431 667 q 385 779 408 747 q 367 779 381 785 q 340 765 354 774 q 315 747 325 756 q 307 735 304 738 l 407 610 q 416 609 408 607 q 431 615 424 611 q 444 622 439 618 q 449 629 450 626 m 582 515 l 531 639 l 481 515 l 582 515 m 753 735 q 744 747 754 738 q 721 765 735 756 q 694 779 707 774 q 676 779 681 785 q 640 707 651 747 q 613 629 628 667 q 615 622 610 626 q 629 615 621 618 q 644 609 638 611 q 654 610 651 607 l 753 735 m 913 515 q 883 367 913 436 q 801 245 853 297 q 679 163 749 193 q 531 133 610 133 q 382 163 451 133 q 260 245 313 193 q 178 367 208 297 q 147 515 147 436 q 178 664 147 594 q 260 785 208 733 q 382 867 313 838 q 531 897 451 897 q 679 867 610 897 q 801 785 749 838 q 883 664 853 733 q 913 515 913 594 m 940 515 q 908 675 940 600 q 821 806 876 750 q 690 894 765 861 q 531 926 615 926 q 371 894 446 926 q 240 806 296 861 q 151 675 183 750 q 118 515 118 600 q 151 356 118 431 q 240 226 183 282 q 371 137 296 169 q 531 104 446 104 q 690 137 615 104 q 821 226 765 169 q 908 356 876 282 q 940 515 940 431 m 982 144 l 946 144 l 946 49 l 919 49 l 919 144 l 885 144 l 885 167 l 982 167 l 982 144 m 1006 515 q 968 331 1006 417 q 866 179 931 244 q 715 76 801 114 q 531 39 628 39 q 346 76 432 39 q 195 179 260 114 q 93 331 131 244 q 56 515 56 417 q 93 701 56 614 q 195 852 131 788 q 346 954 260 917 q 531 992 432 992 q 715 954 628 992 q 866 852 801 917 q 968 701 931 788 q 1006 515 1006 614 m 1106 49 l 1085 49 l 1085 144 l 1061 49 l 1039 49 l 1015 144 l 1015 49 l 993 49 l 993 167 l 1028 167 l 1051 75 l 1071 167 l 1106 167 l 1106 49 z "},"ò":{"ha":1108,"x_min":56,"x_max":1106,"o":"m 746 336 q 315 336 532 282 q 349 288 329 313 q 397 240 369 263 q 457 204 424 218 q 531 190 490 190 q 603 204 569 190 q 663 240 636 218 q 711 288 690 263 q 746 336 732 313 m 833 472 l 228 472 l 301 356 q 530 328 417 328 q 758 356 643 329 l 833 472 m 449 629 q 419 707 431 667 q 385 779 408 747 q 367 779 381 785 q 340 765 354 774 q 315 747 325 756 q 307 735 304 738 l 407 610 q 416 609 408 607 q 431 615 424 611 q 444 622 439 618 q 449 629 450 626 m 582 515 l 531 639 l 481 515 l 582 515 m 753 735 q 744 747 754 738 q 721 765 735 756 q 694 779 707 774 q 676 779 681 785 q 640 707 651 747 q 613 629 628 667 q 615 622 610 626 q 629 615 621 618 q 644 609 638 611 q 654 610 651 607 l 753 735 m 913 515 q 883 367 913 436 q 801 245 853 297 q 679 163 749 193 q 531 133 610 133 q 382 163 451 133 q 260 245 313 193 q 178 367 208 297 q 147 515 147 436 q 178 664 147 594 q 260 785 208 733 q 382 867 313 838 q 531 897 451 897 q 679 867 610 897 q 801 785 749 838 q 883 664 853 733 q 913 515 913 594 m 940 515 q 908 675 940 600 q 821 806 876 750 q 690 894 765 861 q 531 926 615 926 q 371 894 446 926 q 240 806 296 861 q 151 675 183 750 q 118 515 118 600 q 151 356 118 431 q 240 226 183 282 q 371 137 296 169 q 531 104 446 104 q 690 137 615 104 q 821 226 765 169 q 908 356 876 282 q 940 515 940 431 m 982 144 l 946 144 l 946 49 l 919 49 l 919 144 l 885 144 l 885 167 l 982 167 l 982 144 m 1006 515 q 968 331 1006 417 q 866 179 931 244 q 715 76 801 114 q 531 39 628 39 q 346 76 432 39 q 195 179 260 114 q 93 331 131 244 q 56 515 56 417 q 93 701 56 614 q 195 852 131 788 q 346 954 260 917 q 531 992 432 992 q 715 954 628 992 q 866 852 801 917 q 968 701 931 788 q 1006 515 1006 614 m 1106 49 l 1085 49 l 1085 144 l 1061 49 l 1039 49 l 1015 144 l 1015 49 l 993 49 l 993 167 l 1028 167 l 1051 75 l 1071 167 l 1106 167 l 1106 49 z "},"ñ":{"ha":1108,"x_min":56,"x_max":1106,"o":"m 746 336 q 315 336 532 282 q 349 288 329 313 q 397 240 369 263 q 457 204 424 218 q 531 190 490 190 q 603 204 569 190 q 663 240 636 218 q 711 288 690 263 q 746 336 732 313 m 833 472 l 228 472 l 301 356 q 530 328 417 328 q 758 356 643 329 l 833 472 m 449 629 q 419 707 431 667 q 385 779 408 747 q 367 779 381 785 q 340 765 354 774 q 315 747 325 756 q 307 735 304 738 l 407 610 q 416 609 408 607 q 431 615 424 611 q 444 622 439 618 q 449 629 450 626 m 582 515 l 531 639 l 481 515 l 582 515 m 753 735 q 744 747 754 738 q 721 765 735 756 q 694 779 707 774 q 676 779 681 785 q 640 707 651 747 q 613 629 628 667 q 615 622 610 626 q 629 615 621 618 q 644 609 638 611 q 654 610 651 607 l 753 735 m 913 515 q 883 367 913 436 q 801 245 853 297 q 679 163 749 193 q 531 133 610 133 q 382 163 451 133 q 260 245 313 193 q 178 367 208 297 q 147 515 147 436 q 178 664 147 594 q 260 785 208 733 q 382 867 313 838 q 531 897 451 897 q 679 867 610 897 q 801 785 749 838 q 883 664 853 733 q 913 515 913 594 m 940 515 q 908 675 940 600 q 821 806 876 750 q 690 894 765 861 q 531 926 615 926 q 371 894 446 926 q 240 806 296 861 q 151 675 183 750 q 118 515 118 600 q 151 356 118 431 q 240 226 183 282 q 371 137 296 169 q 531 104 446 104 q 690 137 615 104 q 821 226 765 169 q 908 356 876 282 q 940 515 940 431 m 982 144 l 946 144 l 946 49 l 919 49 l 919 144 l 885 144 l 885 167 l 982 167 l 982 144 m 1006 515 q 968 331 1006 417 q 866 179 931 244 q 715 76 801 114 q 531 39 628 39 q 346 76 432 39 q 195 179 260 114 q 93 331 131 244 q 56 515 56 417 q 93 701 56 614 q 195 852 131 788 q 346 954 260 917 q 531 992 432 992 q 715 954 628 992 q 866 852 801 917 q 968 701 931 788 q 1006 515 1006 614 m 1106 49 l 1085 49 l 1085 144 l 1061 49 l 1039 49 l 1015 144 l 1015 49 l 993 49 l 993 167 l 1028 167 l 1051 75 l 1071 167 l 1106 167 l 1106 49 z "},"ï":{"ha":1108,"x_min":56,"x_max":1106,"o":"m 746 336 q 315 336 532 282 q 349 288 329 313 q 397 240 369 263 q 457 204 424 218 q 531 190 490 190 q 603 204 569 190 q 663 240 636 218 q 711 288 690 263 q 746 336 732 313 m 833 472 l 228 472 l 301 356 q 530 328 417 328 q 758 356 643 329 l 833 472 m 449 629 q 419 707 431 667 q 385 779 408 747 q 367 779 381 785 q 340 765 354 774 q 315 747 325 756 q 307 735 304 738 l 407 610 q 416 609 408 607 q 431 615 424 611 q 444 622 439 618 q 449 629 450 626 m 582 515 l 531 639 l 481 515 l 582 515 m 753 735 q 744 747 754 738 q 721 765 735 756 q 694 779 707 774 q 676 779 681 785 q 640 707 651 747 q 613 629 628 667 q 615 622 610 626 q 629 615 621 618 q 644 609 638 611 q 654 610 651 607 l 753 735 m 913 515 q 883 367 913 436 q 801 245 853 297 q 679 163 749 193 q 531 133 610 133 q 382 163 451 133 q 260 245 313 193 q 178 367 208 297 q 147 515 147 436 q 178 664 147 594 q 260 785 208 733 q 382 867 313 838 q 531 897 451 897 q 679 867 610 897 q 801 785 749 838 q 883 664 853 733 q 913 515 913 594 m 940 515 q 908 675 940 600 q 821 806 876 750 q 690 894 765 861 q 531 926 615 926 q 371 894 446 926 q 240 806 296 861 q 151 675 183 750 q 118 515 118 600 q 151 356 118 431 q 240 226 183 282 q 371 137 296 169 q 531 104 446 104 q 690 137 615 104 q 821 226 765 169 q 908 356 876 282 q 940 515 940 431 m 982 144 l 946 144 l 946 49 l 919 49 l 919 144 l 885 144 l 885 167 l 982 167 l 982 144 m 1006 515 q 968 331 1006 417 q 866 179 931 244 q 715 76 801 114 q 531 39 628 39 q 346 76 432 39 q 195 179 260 114 q 93 331 131 244 q 56 515 56 417 q 93 701 56 614 q 195 852 131 788 q 346 954 260 917 q 531 992 432 992 q 715 954 628 992 q 866 852 801 917 q 968 701 931 788 q 1006 515 1006 614 m 1106 49 l 1085 49 l 1085 144 l 1061 49 l 1039 49 l 1015 144 l 1015 49 l 993 49 l 993 167 l 1028 167 l 1051 75 l 1071 167 l 1106 167 l 1106 49 z "},"î":{"ha":1108,"x_min":56,"x_max":1106,"o":"m 746 336 q 315 336 532 282 q 349 288 329 313 q 397 240 369 263 q 457 204 424 218 q 531 190 490 190 q 603 204 569 190 q 663 240 636 218 q 711 288 690 263 q 746 336 732 313 m 833 472 l 228 472 l 301 356 q 530 328 417 328 q 758 356 643 329 l 833 472 m 449 629 q 419 707 431 667 q 385 779 408 747 q 367 779 381 785 q 340 765 354 774 q 315 747 325 756 q 307 735 304 738 l 407 610 q 416 609 408 607 q 431 615 424 611 q 444 622 439 618 q 449 629 450 626 m 582 515 l 531 639 l 481 515 l 582 515 m 753 735 q 744 747 754 738 q 721 765 735 756 q 694 779 707 774 q 676 779 681 785 q 640 707 651 747 q 613 629 628 667 q 615 622 610 626 q 629 615 621 618 q 644 609 638 611 q 654 610 651 607 l 753 735 m 913 515 q 883 367 913 436 q 801 245 853 297 q 679 163 749 193 q 531 133 610 133 q 382 163 451 133 q 260 245 313 193 q 178 367 208 297 q 147 515 147 436 q 178 664 147 594 q 260 785 208 733 q 382 867 313 838 q 531 897 451 897 q 679 867 610 897 q 801 785 749 838 q 883 664 853 733 q 913 515 913 594 m 940 515 q 908 675 940 600 q 821 806 876 750 q 690 894 765 861 q 531 926 615 926 q 371 894 446 926 q 240 806 296 861 q 151 675 183 750 q 118 515 118 600 q 151 356 118 431 q 240 226 183 282 q 371 137 296 169 q 531 104 446 104 q 690 137 615 104 q 821 226 765 169 q 908 356 876 282 q 940 515 940 431 m 982 144 l 946 144 l 946 49 l 919 49 l 919 144 l 885 144 l 885 167 l 982 167 l 982 144 m 1006 515 q 968 331 1006 417 q 866 179 931 244 q 715 76 801 114 q 531 39 628 39 q 346 76 432 39 q 195 179 260 114 q 93 331 131 244 q 56 515 56 417 q 93 701 56 614 q 195 852 131 788 q 346 954 260 917 q 531 992 432 992 q 715 954 628 992 q 866 852 801 917 q 968 701 931 788 q 1006 515 1006 614 m 1106 49 l 1085 49 l 1085 144 l 1061 49 l 1039 49 l 1015 144 l 1015 49 l 993 49 l 993 167 l 1028 167 l 1051 75 l 1071 167 l 1106 167 l 1106 49 z "},"í":{"ha":1108,"x_min":56,"x_max":1106,"o":"m 746 336 q 315 336 532 282 q 349 288 329 313 q 397 240 369 263 q 457 204 424 218 q 531 190 490 190 q 603 204 569 190 q 663 240 636 218 q 711 288 690 263 q 746 336 732 313 m 833 472 l 228 472 l 301 356 q 530 328 417 328 q 758 356 643 329 l 833 472 m 449 629 q 419 707 431 667 q 385 779 408 747 q 367 779 381 785 q 340 765 354 774 q 315 747 325 756 q 307 735 304 738 l 407 610 q 416 609 408 607 q 431 615 424 611 q 444 622 439 618 q 449 629 450 626 m 582 515 l 531 639 l 481 515 l 582 515 m 753 735 q 744 747 754 738 q 721 765 735 756 q 694 779 707 774 q 676 779 681 785 q 640 707 651 747 q 613 629 628 667 q 615 622 610 626 q 629 615 621 618 q 644 609 638 611 q 654 610 651 607 l 753 735 m 913 515 q 883 367 913 436 q 801 245 853 297 q 679 163 749 193 q 531 133 610 133 q 382 163 451 133 q 260 245 313 193 q 178 367 208 297 q 147 515 147 436 q 178 664 147 594 q 260 785 208 733 q 382 867 313 838 q 531 897 451 897 q 679 867 610 897 q 801 785 749 838 q 883 664 853 733 q 913 515 913 594 m 940 515 q 908 675 940 600 q 821 806 876 750 q 690 894 765 861 q 531 926 615 926 q 371 894 446 926 q 240 806 296 861 q 151 675 183 750 q 118 515 118 600 q 151 356 118 431 q 240 226 183 282 q 371 137 296 169 q 531 104 446 104 q 690 137 615 104 q 821 226 765 169 q 908 356 876 282 q 940 515 940 431 m 982 144 l 946 144 l 946 49 l 919 49 l 919 144 l 885 144 l 885 167 l 982 167 l 982 144 m 1006 515 q 968 331 1006 417 q 866 179 931 244 q 715 76 801 114 q 531 39 628 39 q 346 76 432 39 q 195 179 260 114 q 93 331 131 244 q 56 515 56 417 q 93 701 56 614 q 195 852 131 788 q 346 954 260 917 q 531 992 432 992 q 715 954 628 992 q 866 852 801 917 q 968 701 931 788 q 1006 515 1006 614 m 1106 49 l 1085 49 l 1085 144 l 1061 49 l 1039 49 l 1015 144 l 1015 49 l 993 49 l 993 167 l 1028 167 l 1051 75 l 1071 167 l 1106 167 l 1106 49 z "},"ì":{"ha":1108,"x_min":56,"x_max":1106,"o":"m 746 336 q 315 336 532 282 q 349 288 329 313 q 397 240 369 263 q 457 204 424 218 q 531 190 490 190 q 603 204 569 190 q 663 240 636 218 q 711 288 690 263 q 746 336 732 313 m 833 472 l 228 472 l 301 356 q 530 328 417 328 q 758 356 643 329 l 833 472 m 449 629 q 419 707 431 667 q 385 779 408 747 q 367 779 381 785 q 340 765 354 774 q 315 747 325 756 q 307 735 304 738 l 407 610 q 416 609 408 607 q 431 615 424 611 q 444 622 439 618 q 449 629 450 626 m 582 515 l 531 639 l 481 515 l 582 515 m 753 735 q 744 747 754 738 q 721 765 735 756 q 694 779 707 774 q 676 779 681 785 q 640 707 651 747 q 613 629 628 667 q 615 622 610 626 q 629 615 621 618 q 644 609 638 611 q 654 610 651 607 l 753 735 m 913 515 q 883 367 913 436 q 801 245 853 297 q 679 163 749 193 q 531 133 610 133 q 382 163 451 133 q 260 245 313 193 q 178 367 208 297 q 147 515 147 436 q 178 664 147 594 q 260 785 208 733 q 382 867 313 838 q 531 897 451 897 q 679 867 610 897 q 801 785 749 838 q 883 664 853 733 q 913 515 913 594 m 940 515 q 908 675 940 600 q 821 806 876 750 q 690 894 765 861 q 531 926 615 926 q 371 894 446 926 q 240 806 296 861 q 151 675 183 750 q 118 515 118 600 q 151 356 118 431 q 240 226 183 282 q 371 137 296 169 q 531 104 446 104 q 690 137 615 104 q 821 226 765 169 q 908 356 876 282 q 940 515 940 431 m 982 144 l 946 144 l 946 49 l 919 49 l 919 144 l 885 144 l 885 167 l 982 167 l 982 144 m 1006 515 q 968 331 1006 417 q 866 179 931 244 q 715 76 801 114 q 531 39 628 39 q 346 76 432 39 q 195 179 260 114 q 93 331 131 244 q 56 515 56 417 q 93 701 56 614 q 195 852 131 788 q 346 954 260 917 q 531 992 432 992 q 715 954 628 992 q 866 852 801 917 q 968 701 931 788 q 1006 515 1006 614 m 1106 49 l 1085 49 l 1085 144 l 1061 49 l 1039 49 l 1015 144 l 1015 49 l 993 49 l 993 167 l 1028 167 l 1051 75 l 1071 167 l 1106 167 l 1106 49 z "},"ë":{"ha":1108,"x_min":56,"x_max":1106,"o":"m 746 336 q 315 336 532 282 q 349 288 329 313 q 397 240 369 263 q 457 204 424 218 q 531 190 490 190 q 603 204 569 190 q 663 240 636 218 q 711 288 690 263 q 746 336 732 313 m 833 472 l 228 472 l 301 356 q 530 328 417 328 q 758 356 643 329 l 833 472 m 449 629 q 419 707 431 667 q 385 779 408 747 q 367 779 381 785 q 340 765 354 774 q 315 747 325 756 q 307 735 304 738 l 407 610 q 416 609 408 607 q 431 615 424 611 q 444 622 439 618 q 449 629 450 626 m 582 515 l 531 639 l 481 515 l 582 515 m 753 735 q 744 747 754 738 q 721 765 735 756 q 694 779 707 774 q 676 779 681 785 q 640 707 651 747 q 613 629 628 667 q 615 622 610 626 q 629 615 621 618 q 644 609 638 611 q 654 610 651 607 l 753 735 m 913 515 q 883 367 913 436 q 801 245 853 297 q 679 163 749 193 q 531 133 610 133 q 382 163 451 133 q 260 245 313 193 q 178 367 208 297 q 147 515 147 436 q 178 664 147 594 q 260 785 208 733 q 382 867 313 838 q 531 897 451 897 q 679 867 610 897 q 801 785 749 838 q 883 664 853 733 q 913 515 913 594 m 940 515 q 908 675 940 600 q 821 806 876 750 q 690 894 765 861 q 531 926 615 926 q 371 894 446 926 q 240 806 296 861 q 151 675 183 750 q 118 515 118 600 q 151 356 118 431 q 240 226 183 282 q 371 137 296 169 q 531 104 446 104 q 690 137 615 104 q 821 226 765 169 q 908 356 876 282 q 940 515 940 431 m 982 144 l 946 144 l 946 49 l 919 49 l 919 144 l 885 144 l 885 167 l 982 167 l 982 144 m 1006 515 q 968 331 1006 417 q 866 179 931 244 q 715 76 801 114 q 531 39 628 39 q 346 76 432 39 q 195 179 260 114 q 93 331 131 244 q 56 515 56 417 q 93 701 56 614 q 195 852 131 788 q 346 954 260 917 q 531 992 432 992 q 715 954 628 992 q 866 852 801 917 q 968 701 931 788 q 1006 515 1006 614 m 1106 49 l 1085 49 l 1085 144 l 1061 49 l 1039 49 l 1015 144 l 1015 49 l 993 49 l 993 167 l 1028 167 l 1051 75 l 1071 167 l 1106 167 l 1106 49 z "},"à":{"ha":1108,"x_min":56,"x_max":1106,"o":"m 746 336 q 315 336 532 282 q 349 288 329 313 q 397 240 369 263 q 457 204 424 218 q 531 190 490 190 q 603 204 569 190 q 663 240 636 218 q 711 288 690 263 q 746 336 732 313 m 833 472 l 228 472 l 301 356 q 530 328 417 328 q 758 356 643 329 l 833 472 m 449 629 q 419 707 431 667 q 385 779 408 747 q 367 779 381 785 q 340 765 354 774 q 315 747 325 756 q 307 735 304 738 l 407 610 q 416 609 408 607 q 431 615 424 611 q 444 622 439 618 q 449 629 450 626 m 582 515 l 531 639 l 481 515 l 582 515 m 753 735 q 744 747 754 738 q 721 765 735 756 q 694 779 707 774 q 676 779 681 785 q 640 707 651 747 q 613 629 628 667 q 615 622 610 626 q 629 615 621 618 q 644 609 638 611 q 654 610 651 607 l 753 735 m 913 515 q 883 367 913 436 q 801 245 853 297 q 679 163 749 193 q 531 133 610 133 q 382 163 451 133 q 260 245 313 193 q 178 367 208 297 q 147 515 147 436 q 178 664 147 594 q 260 785 208 733 q 382 867 313 838 q 531 897 451 897 q 679 867 610 897 q 801 785 749 838 q 883 664 853 733 q 913 515 913 594 m 940 515 q 908 675 940 600 q 821 806 876 750 q 690 894 765 861 q 531 926 615 926 q 371 894 446 926 q 240 806 296 861 q 151 675 183 750 q 118 515 118 600 q 151 356 118 431 q 240 226 183 282 q 371 137 296 169 q 531 104 446 104 q 690 137 615 104 q 821 226 765 169 q 908 356 876 282 q 940 515 940 431 m 982 144 l 946 144 l 946 49 l 919 49 l 919 144 l 885 144 l 885 167 l 982 167 l 982 144 m 1006 515 q 968 331 1006 417 q 866 179 931 244 q 715 76 801 114 q 531 39 628 39 q 346 76 432 39 q 195 179 260 114 q 93 331 131 244 q 56 515 56 417 q 93 701 56 614 q 195 852 131 788 q 346 954 260 917 q 531 992 432 992 q 715 954 628 992 q 866 852 801 917 q 968 701 931 788 q 1006 515 1006 614 m 1106 49 l 1085 49 l 1085 144 l 1061 49 l 1039 49 l 1015 144 l 1015 49 l 993 49 l 993 167 l 1028 167 l 1051 75 l 1071 167 l 1106 167 l 1106 49 z "},"á":{"ha":1108,"x_min":56,"x_max":1106,"o":"m 746 336 q 315 336 532 282 q 349 288 329 313 q 397 240 369 263 q 457 204 424 218 q 531 190 490 190 q 603 204 569 190 q 663 240 636 218 q 711 288 690 263 q 746 336 732 313 m 833 472 l 228 472 l 301 356 q 530 328 417 328 q 758 356 643 329 l 833 472 m 449 629 q 419 707 431 667 q 385 779 408 747 q 367 779 381 785 q 340 765 354 774 q 315 747 325 756 q 307 735 304 738 l 407 610 q 416 609 408 607 q 431 615 424 611 q 444 622 439 618 q 449 629 450 626 m 582 515 l 531 639 l 481 515 l 582 515 m 753 735 q 744 747 754 738 q 721 765 735 756 q 694 779 707 774 q 676 779 681 785 q 640 707 651 747 q 613 629 628 667 q 615 622 610 626 q 629 615 621 618 q 644 609 638 611 q 654 610 651 607 l 753 735 m 913 515 q 883 367 913 436 q 801 245 853 297 q 679 163 749 193 q 531 133 610 133 q 382 163 451 133 q 260 245 313 193 q 178 367 208 297 q 147 515 147 436 q 178 664 147 594 q 260 785 208 733 q 382 867 313 838 q 531 897 451 897 q 679 867 610 897 q 801 785 749 838 q 883 664 853 733 q 913 515 913 594 m 940 515 q 908 675 940 600 q 821 806 876 750 q 690 894 765 861 q 531 926 615 926 q 371 894 446 926 q 240 806 296 861 q 151 675 183 750 q 118 515 118 600 q 151 356 118 431 q 240 226 183 282 q 371 137 296 169 q 531 104 446 104 q 690 137 615 104 q 821 226 765 169 q 908 356 876 282 q 940 515 940 431 m 982 144 l 946 144 l 946 49 l 919 49 l 919 144 l 885 144 l 885 167 l 982 167 l 982 144 m 1006 515 q 968 331 1006 417 q 866 179 931 244 q 715 76 801 114 q 531 39 628 39 q 346 76 432 39 q 195 179 260 114 q 93 331 131 244 q 56 515 56 417 q 93 701 56 614 q 195 852 131 788 q 346 954 260 917 q 531 992 432 992 q 715 954 628 992 q 866 852 801 917 q 968 701 931 788 q 1006 515 1006 614 m 1106 49 l 1085 49 l 1085 144 l 1061 49 l 1039 49 l 1015 144 l 1015 49 l 993 49 l 993 167 l 1028 167 l 1051 75 l 1071 167 l 1106 167 l 1106 49 z "},"â":{"ha":1108,"x_min":56,"x_max":1106,"o":"m 746 336 q 315 336 532 282 q 349 288 329 313 q 397 240 369 263 q 457 204 424 218 q 531 190 490 190 q 603 204 569 190 q 663 240 636 218 q 711 288 690 263 q 746 336 732 313 m 833 472 l 228 472 l 301 356 q 530 328 417 328 q 758 356 643 329 l 833 472 m 449 629 q 419 707 431 667 q 385 779 408 747 q 367 779 381 785 q 340 765 354 774 q 315 747 325 756 q 307 735 304 738 l 407 610 q 416 609 408 607 q 431 615 424 611 q 444 622 439 618 q 449 629 450 626 m 582 515 l 531 639 l 481 515 l 582 515 m 753 735 q 744 747 754 738 q 721 765 735 756 q 694 779 707 774 q 676 779 681 785 q 640 707 651 747 q 613 629 628 667 q 615 622 610 626 q 629 615 621 618 q 644 609 638 611 q 654 610 651 607 l 753 735 m 913 515 q 883 367 913 436 q 801 245 853 297 q 679 163 749 193 q 531 133 610 133 q 382 163 451 133 q 260 245 313 193 q 178 367 208 297 q 147 515 147 436 q 178 664 147 594 q 260 785 208 733 q 382 867 313 838 q 531 897 451 897 q 679 867 610 897 q 801 785 749 838 q 883 664 853 733 q 913 515 913 594 m 940 515 q 908 675 940 600 q 821 806 876 750 q 690 894 765 861 q 531 926 615 926 q 371 894 446 926 q 240 806 296 861 q 151 675 183 750 q 118 515 118 600 q 151 356 118 431 q 240 226 183 282 q 371 137 296 169 q 531 104 446 104 q 690 137 615 104 q 821 226 765 169 q 908 356 876 282 q 940 515 940 431 m 982 144 l 946 144 l 946 49 l 919 49 l 919 144 l 885 144 l 885 167 l 982 167 l 982 144 m 1006 515 q 968 331 1006 417 q 866 179 931 244 q 715 76 801 114 q 531 39 628 39 q 346 76 432 39 q 195 179 260 114 q 93 331 131 244 q 56 515 56 417 q 93 701 56 614 q 195 852 131 788 q 346 954 260 917 q 531 992 432 992 q 715 954 628 992 q 866 852 801 917 q 968 701 931 788 q 1006 515 1006 614 m 1106 49 l 1085 49 l 1085 144 l 1061 49 l 1039 49 l 1015 144 l 1015 49 l 993 49 l 993 167 l 1028 167 l 1051 75 l 1071 167 l 1106 167 l 1106 49 z "},"ã":{"ha":1108,"x_min":56,"x_max":1106,"o":"m 746 336 q 315 336 532 282 q 349 288 329 313 q 397 240 369 263 q 457 204 424 218 q 531 190 490 190 q 603 204 569 190 q 663 240 636 218 q 711 288 690 263 q 746 336 732 313 m 833 472 l 228 472 l 301 356 q 530 328 417 328 q 758 356 643 329 l 833 472 m 449 629 q 419 707 431 667 q 385 779 408 747 q 367 779 381 785 q 340 765 354 774 q 315 747 325 756 q 307 735 304 738 l 407 610 q 416 609 408 607 q 431 615 424 611 q 444 622 439 618 q 449 629 450 626 m 582 515 l 531 639 l 481 515 l 582 515 m 753 735 q 744 747 754 738 q 721 765 735 756 q 694 779 707 774 q 676 779 681 785 q 640 707 651 747 q 613 629 628 667 q 615 622 610 626 q 629 615 621 618 q 644 609 638 611 q 654 610 651 607 l 753 735 m 913 515 q 883 367 913 436 q 801 245 853 297 q 679 163 749 193 q 531 133 610 133 q 382 163 451 133 q 260 245 313 193 q 178 367 208 297 q 147 515 147 436 q 178 664 147 594 q 260 785 208 733 q 382 867 313 838 q 531 897 451 897 q 679 867 610 897 q 801 785 749 838 q 883 664 853 733 q 913 515 913 594 m 940 515 q 908 675 940 600 q 821 806 876 750 q 690 894 765 861 q 531 926 615 926 q 371 894 446 926 q 240 806 296 861 q 151 675 183 750 q 118 515 118 600 q 151 356 118 431 q 240 226 183 282 q 371 137 296 169 q 531 104 446 104 q 690 137 615 104 q 821 226 765 169 q 908 356 876 282 q 940 515 940 431 m 982 144 l 946 144 l 946 49 l 919 49 l 919 144 l 885 144 l 885 167 l 982 167 l 982 144 m 1006 515 q 968 331 1006 417 q 866 179 931 244 q 715 76 801 114 q 531 39 628 39 q 346 76 432 39 q 195 179 260 114 q 93 331 131 244 q 56 515 56 417 q 93 701 56 614 q 195 852 131 788 q 346 954 260 917 q 531 992 432 992 q 715 954 628 992 q 866 852 801 917 q 968 701 931 788 q 1006 515 1006 614 m 1106 49 l 1085 49 l 1085 144 l 1061 49 l 1039 49 l 1015 144 l 1015 49 l 993 49 l 993 167 l 1028 167 l 1051 75 l 1071 167 l 1106 167 l 1106 49 z "},"ä":{"ha":1108,"x_min":56,"x_max":1106,"o":"m 746 336 q 315 336 532 282 q 349 288 329 313 q 397 240 369 263 q 457 204 424 218 q 531 190 490 190 q 603 204 569 190 q 663 240 636 218 q 711 288 690 263 q 746 336 732 313 m 833 472 l 228 472 l 301 356 q 530 328 417 328 q 758 356 643 329 l 833 472 m 449 629 q 419 707 431 667 q 385 779 408 747 q 367 779 381 785 q 340 765 354 774 q 315 747 325 756 q 307 735 304 738 l 407 610 q 416 609 408 607 q 431 615 424 611 q 444 622 439 618 q 449 629 450 626 m 582 515 l 531 639 l 481 515 l 582 515 m 753 735 q 744 747 754 738 q 721 765 735 756 q 694 779 707 774 q 676 779 681 785 q 640 707 651 747 q 613 629 628 667 q 615 622 610 626 q 629 615 621 618 q 644 609 638 611 q 654 610 651 607 l 753 735 m 913 515 q 883 367 913 436 q 801 245 853 297 q 679 163 749 193 q 531 133 610 133 q 382 163 451 133 q 260 245 313 193 q 178 367 208 297 q 147 515 147 436 q 178 664 147 594 q 260 785 208 733 q 382 867 313 838 q 531 897 451 897 q 679 867 610 897 q 801 785 749 838 q 883 664 853 733 q 913 515 913 594 m 940 515 q 908 675 940 600 q 821 806 876 750 q 690 894 765 861 q 531 926 615 926 q 371 894 446 926 q 240 806 296 861 q 151 675 183 750 q 118 515 118 600 q 151 356 118 431 q 240 226 183 282 q 371 137 296 169 q 531 104 446 104 q 690 137 615 104 q 821 226 765 169 q 908 356 876 282 q 940 515 940 431 m 982 144 l 946 144 l 946 49 l 919 49 l 919 144 l 885 144 l 885 167 l 982 167 l 982 144 m 1006 515 q 968 331 1006 417 q 866 179 931 244 q 715 76 801 114 q 531 39 628 39 q 346 76 432 39 q 195 179 260 114 q 93 331 131 244 q 56 515 56 417 q 93 701 56 614 q 195 852 131 788 q 346 954 260 917 q 531 992 432 992 q 715 954 628 992 q 866 852 801 917 q 968 701 931 788 q 1006 515 1006 614 m 1106 49 l 1085 49 l 1085 144 l 1061 49 l 1039 49 l 1015 144 l 1015 49 l 993 49 l 993 167 l 1028 167 l 1051 75 l 1071 167 l 1106 167 l 1106 49 z "},"å":{"ha":1108,"x_min":56,"x_max":1106,"o":"m 746 336 q 315 336 532 282 q 349 288 329 313 q 397 240 369 263 q 457 204 424 218 q 531 190 490 190 q 603 204 569 190 q 663 240 636 218 q 711 288 690 263 q 746 336 732 313 m 833 472 l 228 472 l 301 356 q 530 328 417 328 q 758 356 643 329 l 833 472 m 449 629 q 419 707 431 667 q 385 779 408 747 q 367 779 381 785 q 340 765 354 774 q 315 747 325 756 q 307 735 304 738 l 407 610 q 416 609 408 607 q 431 615 424 611 q 444 622 439 618 q 449 629 450 626 m 582 515 l 531 639 l 481 515 l 582 515 m 753 735 q 744 747 754 738 q 721 765 735 756 q 694 779 707 774 q 676 779 681 785 q 640 707 651 747 q 613 629 628 667 q 615 622 610 626 q 629 615 621 618 q 644 609 638 611 q 654 610 651 607 l 753 735 m 913 515 q 883 367 913 436 q 801 245 853 297 q 679 163 749 193 q 531 133 610 133 q 382 163 451 133 q 260 245 313 193 q 178 367 208 297 q 147 515 147 436 q 178 664 147 594 q 260 785 208 733 q 382 867 313 838 q 531 897 451 897 q 679 867 610 897 q 801 785 749 838 q 883 664 853 733 q 913 515 913 594 m 940 515 q 908 675 940 600 q 821 806 876 750 q 690 894 765 861 q 531 926 615 926 q 371 894 446 926 q 240 806 296 861 q 151 675 183 750 q 118 515 118 600 q 151 356 118 431 q 240 226 183 282 q 371 137 296 169 q 531 104 446 104 q 690 137 615 104 q 821 226 765 169 q 908 356 876 282 q 940 515 940 431 m 982 144 l 946 144 l 946 49 l 919 49 l 919 144 l 885 144 l 885 167 l 982 167 l 982 144 m 1006 515 q 968 331 1006 417 q 866 179 931 244 q 715 76 801 114 q 531 39 628 39 q 346 76 432 39 q 195 179 260 114 q 93 331 131 244 q 56 515 56 417 q 93 701 56 614 q 195 852 131 788 q 346 954 260 917 q 531 992 432 992 q 715 954 628 992 q 866 852 801 917 q 968 701 931 788 q 1006 515 1006 614 m 1106 49 l 1085 49 l 1085 144 l 1061 49 l 1039 49 l 1015 144 l 1015 49 l 993 49 l 993 167 l 1028 167 l 1051 75 l 1071 167 l 1106 167 l 1106 49 z "},"æ":{"ha":1108,"x_min":56,"x_max":1106,"o":"m 746 336 q 315 336 532 282 q 349 288 329 313 q 397 240 369 263 q 457 204 424 218 q 531 190 490 190 q 603 204 569 190 q 663 240 636 218 q 711 288 690 263 q 746 336 732 313 m 833 472 l 228 472 l 301 356 q 530 328 417 328 q 758 356 643 329 l 833 472 m 449 629 q 419 707 431 667 q 385 779 408 747 q 367 779 381 785 q 340 765 354 774 q 315 747 325 756 q 307 735 304 738 l 407 610 q 416 609 408 607 q 431 615 424 611 q 444 622 439 618 q 449 629 450 626 m 582 515 l 531 639 l 481 515 l 582 515 m 753 735 q 744 747 754 738 q 721 765 735 756 q 694 779 707 774 q 676 779 681 785 q 640 707 651 747 q 613 629 628 667 q 615 622 610 626 q 629 615 621 618 q 644 609 638 611 q 654 610 651 607 l 753 735 m 913 515 q 883 367 913 436 q 801 245 853 297 q 679 163 749 193 q 531 133 610 133 q 382 163 451 133 q 260 245 313 193 q 178 367 208 297 q 147 515 147 436 q 178 664 147 594 q 260 785 208 733 q 382 867 313 838 q 531 897 451 897 q 679 867 610 897 q 801 785 749 838 q 883 664 853 733 q 913 515 913 594 m 940 515 q 908 675 940 600 q 821 806 876 750 q 690 894 765 861 q 531 926 615 926 q 371 894 446 926 q 240 806 296 861 q 151 675 183 750 q 118 515 118 600 q 151 356 118 431 q 240 226 183 282 q 371 137 296 169 q 531 104 446 104 q 690 137 615 104 q 821 226 765 169 q 908 356 876 282 q 940 515 940 431 m 982 144 l 946 144 l 946 49 l 919 49 l 919 144 l 885 144 l 885 167 l 982 167 l 982 144 m 1006 515 q 968 331 1006 417 q 866 179 931 244 q 715 76 801 114 q 531 39 628 39 q 346 76 432 39 q 195 179 260 114 q 93 331 131 244 q 56 515 56 417 q 93 701 56 614 q 195 852 131 788 q 346 954 260 917 q 531 992 432 992 q 715 954 628 992 q 866 852 801 917 q 968 701 931 788 q 1006 515 1006 614 m 1106 49 l 1085 49 l 1085 144 l 1061 49 l 1039 49 l 1015 144 l 1015 49 l 993 49 l 993 167 l 1028 167 l 1051 75 l 1071 167 l 1106 167 l 1106 49 z "},"ê":{"ha":1108,"x_min":56,"x_max":1106,"o":"m 746 336 q 315 336 532 282 q 349 288 329 313 q 397 240 369 263 q 457 204 424 218 q 531 190 490 190 q 603 204 569 190 q 663 240 636 218 q 711 288 690 263 q 746 336 732 313 m 833 472 l 228 472 l 301 356 q 530 328 417 328 q 758 356 643 329 l 833 472 m 449 629 q 419 707 431 667 q 385 779 408 747 q 367 779 381 785 q 340 765 354 774 q 315 747 325 756 q 307 735 304 738 l 407 610 q 416 609 408 607 q 431 615 424 611 q 444 622 439 618 q 449 629 450 626 m 582 515 l 531 639 l 481 515 l 582 515 m 753 735 q 744 747 754 738 q 721 765 735 756 q 694 779 707 774 q 676 779 681 785 q 640 707 651 747 q 613 629 628 667 q 615 622 610 626 q 629 615 621 618 q 644 609 638 611 q 654 610 651 607 l 753 735 m 913 515 q 883 367 913 436 q 801 245 853 297 q 679 163 749 193 q 531 133 610 133 q 382 163 451 133 q 260 245 313 193 q 178 367 208 297 q 147 515 147 436 q 178 664 147 594 q 260 785 208 733 q 382 867 313 838 q 531 897 451 897 q 679 867 610 897 q 801 785 749 838 q 883 664 853 733 q 913 515 913 594 m 940 515 q 908 675 940 600 q 821 806 876 750 q 690 894 765 861 q 531 926 615 926 q 371 894 446 926 q 240 806 296 861 q 151 675 183 750 q 118 515 118 600 q 151 356 118 431 q 240 226 183 282 q 371 137 296 169 q 531 104 446 104 q 690 137 615 104 q 821 226 765 169 q 908 356 876 282 q 940 515 940 431 m 982 144 l 946 144 l 946 49 l 919 49 l 919 144 l 885 144 l 885 167 l 982 167 l 982 144 m 1006 515 q 968 331 1006 417 q 866 179 931 244 q 715 76 801 114 q 531 39 628 39 q 346 76 432 39 q 195 179 260 114 q 93 331 131 244 q 56 515 56 417 q 93 701 56 614 q 195 852 131 788 q 346 954 260 917 q 531 992 432 992 q 715 954 628 992 q 866 852 801 917 q 968 701 931 788 q 1006 515 1006 614 m 1106 49 l 1085 49 l 1085 144 l 1061 49 l 1039 49 l 1015 144 l 1015 49 l 993 49 l 993 167 l 1028 167 l 1051 75 l 1071 167 l 1106 167 l 1106 49 z "},"é":{"ha":1108,"x_min":56,"x_max":1106,"o":"m 746 336 q 315 336 532 282 q 349 288 329 313 q 397 240 369 263 q 457 204 424 218 q 531 190 490 190 q 603 204 569 190 q 663 240 636 218 q 711 288 690 263 q 746 336 732 313 m 833 472 l 228 472 l 301 356 q 530 328 417 328 q 758 356 643 329 l 833 472 m 449 629 q 419 707 431 667 q 385 779 408 747 q 367 779 381 785 q 340 765 354 774 q 315 747 325 756 q 307 735 304 738 l 407 610 q 416 609 408 607 q 431 615 424 611 q 444 622 439 618 q 449 629 450 626 m 582 515 l 531 639 l 481 515 l 582 515 m 753 735 q 744 747 754 738 q 721 765 735 756 q 694 779 707 774 q 676 779 681 785 q 640 707 651 747 q 613 629 628 667 q 615 622 610 626 q 629 615 621 618 q 644 609 638 611 q 654 610 651 607 l 753 735 m 913 515 q 883 367 913 436 q 801 245 853 297 q 679 163 749 193 q 531 133 610 133 q 382 163 451 133 q 260 245 313 193 q 178 367 208 297 q 147 515 147 436 q 178 664 147 594 q 260 785 208 733 q 382 867 313 838 q 531 897 451 897 q 679 867 610 897 q 801 785 749 838 q 883 664 853 733 q 913 515 913 594 m 940 515 q 908 675 940 600 q 821 806 876 750 q 690 894 765 861 q 531 926 615 926 q 371 894 446 926 q 240 806 296 861 q 151 675 183 750 q 118 515 118 600 q 151 356 118 431 q 240 226 183 282 q 371 137 296 169 q 531 104 446 104 q 690 137 615 104 q 821 226 765 169 q 908 356 876 282 q 940 515 940 431 m 982 144 l 946 144 l 946 49 l 919 49 l 919 144 l 885 144 l 885 167 l 982 167 l 982 144 m 1006 515 q 968 331 1006 417 q 866 179 931 244 q 715 76 801 114 q 531 39 628 39 q 346 76 432 39 q 195 179 260 114 q 93 331 131 244 q 56 515 56 417 q 93 701 56 614 q 195 852 131 788 q 346 954 260 917 q 531 992 432 992 q 715 954 628 992 q 866 852 801 917 q 968 701 931 788 q 1006 515 1006 614 m 1106 49 l 1085 49 l 1085 144 l 1061 49 l 1039 49 l 1015 144 l 1015 49 l 993 49 l 993 167 l 1028 167 l 1051 75 l 1071 167 l 1106 167 l 1106 49 z "},"è":{"ha":1108,"x_min":56,"x_max":1106,"o":"m 746 336 q 315 336 532 282 q 349 288 329 313 q 397 240 369 263 q 457 204 424 218 q 531 190 490 190 q 603 204 569 190 q 663 240 636 218 q 711 288 690 263 q 746 336 732 313 m 833 472 l 228 472 l 301 356 q 530 328 417 328 q 758 356 643 329 l 833 472 m 449 629 q 419 707 431 667 q 385 779 408 747 q 367 779 381 785 q 340 765 354 774 q 315 747 325 756 q 307 735 304 738 l 407 610 q 416 609 408 607 q 431 615 424 611 q 444 622 439 618 q 449 629 450 626 m 582 515 l 531 639 l 481 515 l 582 515 m 753 735 q 744 747 754 738 q 721 765 735 756 q 694 779 707 774 q 676 779 681 785 q 640 707 651 747 q 613 629 628 667 q 615 622 610 626 q 629 615 621 618 q 644 609 638 611 q 654 610 651 607 l 753 735 m 913 515 q 883 367 913 436 q 801 245 853 297 q 679 163 749 193 q 531 133 610 133 q 382 163 451 133 q 260 245 313 193 q 178 367 208 297 q 147 515 147 436 q 178 664 147 594 q 260 785 208 733 q 382 867 313 838 q 531 897 451 897 q 679 867 610 897 q 801 785 749 838 q 883 664 853 733 q 913 515 913 594 m 940 515 q 908 675 940 600 q 821 806 876 750 q 690 894 765 861 q 531 926 615 926 q 371 894 446 926 q 240 806 296 861 q 151 675 183 750 q 118 515 118 600 q 151 356 118 431 q 240 226 183 282 q 371 137 296 169 q 531 104 446 104 q 690 137 615 104 q 821 226 765 169 q 908 356 876 282 q 940 515 940 431 m 982 144 l 946 144 l 946 49 l 919 49 l 919 144 l 885 144 l 885 167 l 982 167 l 982 144 m 1006 515 q 968 331 1006 417 q 866 179 931 244 q 715 76 801 114 q 531 39 628 39 q 346 76 432 39 q 195 179 260 114 q 93 331 131 244 q 56 515 56 417 q 93 701 56 614 q 195 852 131 788 q 346 954 260 917 q 531 992 432 992 q 715 954 628 992 q 866 852 801 917 q 968 701 931 788 q 1006 515 1006 614 m 1106 49 l 1085 49 l 1085 144 l 1061 49 l 1039 49 l 1015 144 l 1015 49 l 993 49 l 993 167 l 1028 167 l 1051 75 l 1071 167 l 1106 167 l 1106 49 z "},"ç":{"ha":1108,"x_min":56,"x_max":1106,"o":"m 746 336 q 315 336 532 282 q 349 288 329 313 q 397 240 369 263 q 457 204 424 218 q 531 190 490 190 q 603 204 569 190 q 663 240 636 218 q 711 288 690 263 q 746 336 732 313 m 833 472 l 228 472 l 301 356 q 530 328 417 328 q 758 356 643 329 l 833 472 m 449 629 q 419 707 431 667 q 385 779 408 747 q 367 779 381 785 q 340 765 354 774 q 315 747 325 756 q 307 735 304 738 l 407 610 q 416 609 408 607 q 431 615 424 611 q 444 622 439 618 q 449 629 450 626 m 582 515 l 531 639 l 481 515 l 582 515 m 753 735 q 744 747 754 738 q 721 765 735 756 q 694 779 707 774 q 676 779 681 785 q 640 707 651 747 q 613 629 628 667 q 615 622 610 626 q 629 615 621 618 q 644 609 638 611 q 654 610 651 607 l 753 735 m 913 515 q 883 367 913 436 q 801 245 853 297 q 679 163 749 193 q 531 133 610 133 q 382 163 451 133 q 260 245 313 193 q 178 367 208 297 q 147 515 147 436 q 178 664 147 594 q 260 785 208 733 q 382 867 313 838 q 531 897 451 897 q 679 867 610 897 q 801 785 749 838 q 883 664 853 733 q 913 515 913 594 m 940 515 q 908 675 940 600 q 821 806 876 750 q 690 894 765 861 q 531 926 615 926 q 371 894 446 926 q 240 806 296 861 q 151 675 183 750 q 118 515 118 600 q 151 356 118 431 q 240 226 183 282 q 371 137 296 169 q 531 104 446 104 q 690 137 615 104 q 821 226 765 169 q 908 356 876 282 q 940 515 940 431 m 982 144 l 946 144 l 946 49 l 919 49 l 919 144 l 885 144 l 885 167 l 982 167 l 982 144 m 1006 515 q 968 331 1006 417 q 866 179 931 244 q 715 76 801 114 q 531 39 628 39 q 346 76 432 39 q 195 179 260 114 q 93 331 131 244 q 56 515 56 417 q 93 701 56 614 q 195 852 131 788 q 346 954 260 917 q 531 992 432 992 q 715 954 628 992 q 866 852 801 917 q 968 701 931 788 q 1006 515 1006 614 m 1106 49 l 1085 49 l 1085 144 l 1061 49 l 1039 49 l 1015 144 l 1015 49 l 993 49 l 993 167 l 1028 167 l 1051 75 l 1071 167 l 1106 167 l 1106 49 z "},"˚":{"ha":463,"x_min":56,"x_max":407,"o":"m 229 1058 q 161 1072 193 1058 q 106 1110 129 1086 q 69 1165 82 1133 q 56 1233 56 1197 q 69 1301 56 1269 q 106 1358 82 1333 q 161 1396 129 1382 q 229 1410 193 1410 q 298 1396 265 1410 q 355 1358 331 1382 q 393 1301 379 1333 q 407 1233 407 1269 q 393 1165 407 1197 q 355 1110 379 1133 q 298 1072 331 1086 q 229 1058 265 1058 m 229 1172 q 272 1190 253 1172 q 292 1233 292 1207 q 272 1275 292 1258 q 229 1292 253 1292 q 188 1275 206 1292 q 169 1233 169 1258 q 188 1190 169 1207 q 229 1172 206 1172 z "},"ˇ":{"ha":735,"x_min":56,"x_max":679,"o":"m 56 1335 l 276 1335 l 365 1207 l 456 1335 l 679 1335 l 474 1082 l 258 1082 l 56 1335 z "},"ı":{"ha":1108,"x_min":56,"x_max":1106,"o":"m 746 336 q 315 336 532 282 q 349 288 329 313 q 397 240 369 263 q 457 204 424 218 q 531 190 490 190 q 603 204 569 190 q 663 240 636 218 q 711 288 690 263 q 746 336 732 313 m 833 472 l 228 472 l 301 356 q 530 328 417 328 q 758 356 643 329 l 833 472 m 449 629 q 419 707 431 667 q 385 779 408 747 q 367 779 381 785 q 340 765 354 774 q 315 747 325 756 q 307 735 304 738 l 407 610 q 416 609 408 607 q 431 615 424 611 q 444 622 439 618 q 449 629 450 626 m 582 515 l 531 639 l 481 515 l 582 515 m 753 735 q 744 747 754 738 q 721 765 735 756 q 694 779 707 774 q 676 779 681 785 q 640 707 651 747 q 613 629 628 667 q 615 622 610 626 q 629 615 621 618 q 644 609 638 611 q 654 610 651 607 l 753 735 m 913 515 q 883 367 913 436 q 801 245 853 297 q 679 163 749 193 q 531 133 610 133 q 382 163 451 133 q 260 245 313 193 q 178 367 208 297 q 147 515 147 436 q 178 664 147 594 q 260 785 208 733 q 382 867 313 838 q 531 897 451 897 q 679 867 610 897 q 801 785 749 838 q 883 664 853 733 q 913 515 913 594 m 940 515 q 908 675 940 600 q 821 806 876 750 q 690 894 765 861 q 531 926 615 926 q 371 894 446 926 q 240 806 296 861 q 151 675 183 750 q 118 515 118 600 q 151 356 118 431 q 240 226 183 282 q 371 137 296 169 q 531 104 446 104 q 690 137 615 104 q 821 226 765 169 q 908 356 876 282 q 940 515 940 431 m 982 144 l 946 144 l 946 49 l 919 49 l 919 144 l 885 144 l 885 167 l 982 167 l 982 144 m 1006 515 q 968 331 1006 417 q 866 179 931 244 q 715 76 801 114 q 531 39 628 39 q 346 76 432 39 q 195 179 260 114 q 93 331 131 244 q 56 515 56 417 q 93 701 56 614 q 195 852 131 788 q 346 954 260 917 q 531 992 432 992 q 715 954 628 992 q 866 852 801 917 q 968 701 931 788 q 1006 515 1006 614 m 1106 49 l 1085 49 l 1085 144 l 1061 49 l 1039 49 l 1015 144 l 1015 49 l 993 49 l 993 167 l 1028 167 l 1051 75 l 1071 167 l 1106 167 l 1106 49 z "},"":{"ha":1024,"x_min":72,"x_max":961,"o":"m 603 743 l 413 743 q 388 719 388 743 l 388 0 l 72 0 l 72 821 q 120 958 72 907 q 257 1010 168 1010 l 961 1010 l 810 615 l 853 615 q 931 592 901 615 q 960 513 960 569 l 960 157 q 921 40 960 81 q 803 0 882 0 l 544 0 l 490 269 l 631 269 q 654 290 654 269 l 654 419 q 646 444 654 440 q 617 449 638 449 l 483 449 l 603 743 z "},"²":{"ha":781,"x_min":63,"x_max":718,"o":"m 63 339 q 84 508 63 447 q 141 602 106 569 q 222 647 176 635 q 313 671 267 660 q 358 683 335 676 q 399 699 381 690 q 428 719 417 707 q 440 746 440 731 q 425 769 440 763 q 385 776 410 776 l 90 776 l 140 1010 l 578 1010 q 642 998 615 1010 q 685 967 668 986 q 710 926 703 949 q 718 879 718 903 l 718 718 q 710 646 717 679 q 687 585 703 613 q 643 534 671 557 q 574 493 615 511 q 504 470 538 478 q 444 454 471 463 q 402 433 418 446 q 386 392 386 419 l 718 392 l 663 167 l 63 167 l 63 339 z "},"³":{"ha":758,"x_min":42,"x_max":710,"o":"m 42 397 l 400 397 q 424 403 421 397 q 428 422 428 408 l 428 549 q 424 565 428 561 q 410 568 421 568 l 114 568 l 307 790 l 56 790 l 111 1010 l 710 1010 l 489 722 q 574 717 536 724 q 639 692 613 711 q 680 640 665 674 q 694 553 694 607 l 694 299 q 653 196 694 225 q 547 167 611 167 l 97 167 l 42 397 z "},"¹":{"ha":481,"x_min":42,"x_max":411,"o":"m 136 778 l 42 778 l 111 1010 l 411 1010 l 411 167 l 136 167 l 136 778 z "},"a":{"ha":1033,"x_min":35,"x_max":999,"o":"m 35 0 l 289 1010 l 743 1010 l 999 0 l 668 0 l 647 108 l 388 108 l 365 0 l 35 0 m 432 324 l 601 324 l 517 738 l 432 324 z "},"b":{"ha":985,"x_min":72,"x_max":915,"o":"m 72 1010 l 678 1010 q 782 999 740 1010 q 848 965 824 989 q 883 902 872 942 q 893 803 893 863 l 893 596 q 873 540 893 560 q 817 515 853 521 q 851 504 833 513 q 883 483 868 496 q 906 452 897 469 q 915 413 915 435 l 915 213 q 905 110 915 151 q 870 45 894 69 q 805 10 846 21 q 703 0 764 0 l 72 0 l 72 1010 m 533 228 q 579 235 561 228 q 597 271 597 242 l 597 338 q 535 390 597 390 l 386 390 l 386 228 l 533 228 m 538 604 q 576 615 565 604 q 586 653 586 625 l 586 715 q 568 751 586 743 q 522 760 550 760 l 386 760 l 386 604 l 538 604 z "},"c":{"ha":849,"x_min":72,"x_max":807,"o":"m 289 0 q 188 10 229 0 q 122 45 147 21 q 84 109 96 69 q 72 207 72 149 l 72 800 q 85 903 72 863 q 124 967 97 943 q 194 1000 151 990 q 297 1010 236 1010 l 735 1010 l 792 740 l 442 740 q 403 730 414 740 q 393 692 393 719 l 393 325 q 395 297 393 307 q 403 280 397 286 q 422 272 410 274 q 454 269 433 269 l 807 269 l 739 0 l 289 0 z "},"d":{"ha":986,"x_min":72,"x_max":914,"o":"m 72 1010 l 689 1010 q 792 997 750 1010 q 862 958 835 985 q 901 888 889 931 q 914 783 914 844 l 914 228 q 902 122 914 165 q 863 51 890 78 q 793 12 836 24 q 689 0 750 0 l 72 0 l 72 1010 m 553 269 q 592 279 583 269 q 601 318 601 289 l 601 693 q 592 732 601 722 q 551 742 583 742 l 385 742 l 385 269 l 553 269 z "},"e":{"ha":856,"x_min":72,"x_max":811,"o":"m 386 740 l 386 618 l 746 618 l 746 381 l 386 381 l 386 269 l 811 269 l 744 0 l 72 0 l 72 1010 l 753 1010 l 808 740 l 386 740 z "},"f":{"ha":850,"x_min":72,"x_max":808,"o":"m 386 740 l 386 597 l 746 597 l 746 358 l 385 358 l 385 0 l 72 0 l 72 1010 l 753 1010 l 808 740 l 386 740 z "},"g":{"ha":979,"x_min":72,"x_max":910,"o":"m 440 740 q 402 731 413 740 q 392 692 392 721 l 392 306 q 402 267 392 276 q 440 257 413 257 l 608 257 l 608 393 l 544 393 l 544 599 l 910 599 l 910 14 l 608 -54 l 608 0 l 288 0 q 184 10 225 0 q 118 44 143 19 q 83 108 93 68 q 72 206 72 147 l 72 793 q 83 894 72 853 q 118 962 93 936 q 184 999 143 988 q 288 1010 225 1010 l 792 1010 l 847 740 l 440 740 z "},"h":{"ha":1013,"x_min":72,"x_max":940,"o":"m 72 1010 l 397 1010 l 397 632 l 615 632 l 615 1010 l 940 1010 l 940 0 l 615 0 l 615 375 l 397 375 l 397 0 l 72 0 l 72 1010 z "},"i":{"ha":475,"x_min":79,"x_max":396,"o":"m 79 1010 l 396 1010 l 396 0 l 79 0 l 79 1010 z "},"j":{"ha":960,"x_min":69,"x_max":888,"o":"m 296 0 q 190 10 233 0 q 120 43 147 19 q 81 108 93 67 q 69 211 69 149 l 69 476 l 379 476 l 379 303 q 390 265 379 275 q 428 256 400 256 l 514 256 q 555 265 544 256 q 565 303 565 275 l 565 740 l 278 740 l 333 1010 l 888 1010 l 888 211 q 877 108 888 149 q 842 43 867 67 q 774 10 817 19 q 669 0 732 0 l 296 0 z "},"k":{"ha":1003,"x_min":72,"x_max":975,"o":"m 463 611 l 624 1010 l 975 1010 l 768 532 l 975 0 l 601 0 l 478 367 l 419 367 l 419 0 l 72 0 l 72 1010 l 419 1010 l 419 611 l 463 611 l 463 611 z "},"l":{"ha":800,"x_min":72,"x_max":763,"o":"m 72 0 l 72 1010 l 397 1010 l 397 269 l 763 269 l 694 0 l 72 0 z "},"m":{"ha":1286,"x_min":72,"x_max":1214,"o":"m 72 1010 l 469 1010 l 640 611 l 818 1010 l 1214 1010 l 1214 0 l 893 0 l 893 490 l 640 4 l 393 490 l 393 0 l 72 0 l 72 1010 z "},"n":{"ha":1021,"x_min":72,"x_max":949,"o":"m 72 1010 l 382 1010 l 632 557 l 632 1010 l 949 1010 l 949 0 l 638 0 l 388 442 l 388 0 l 72 0 l 72 1010 z "},"o":{"ha":1010,"x_min":72,"x_max":938,"o":"m 246 0 q 119 49 167 0 q 72 174 72 97 l 72 835 q 119 960 72 911 q 246 1010 167 1010 l 763 1010 q 890 960 842 1010 q 938 835 938 911 l 938 174 q 923 103 938 135 q 883 48 908 71 q 823 13 857 25 q 750 0 789 0 l 246 0 m 572 269 q 610 280 600 269 q 619 318 619 290 l 619 693 q 609 732 619 722 q 571 742 599 742 l 436 742 q 398 732 407 742 q 389 694 389 722 l 389 318 q 398 279 389 289 q 436 269 407 269 l 572 269 z "},"p":{"ha":975,"x_min":72,"x_max":906,"o":"m 72 1010 l 694 1010 q 796 999 756 1010 q 860 965 836 989 q 895 899 885 940 q 906 797 906 858 l 906 468 q 895 365 906 406 q 860 299 885 324 q 794 263 835 274 q 692 253 753 253 l 396 253 l 396 0 l 72 0 l 72 1010 m 543 514 q 592 526 579 514 q 604 574 604 538 l 604 685 q 592 732 604 721 q 543 743 579 743 l 396 743 l 396 514 l 543 514 z "},"q":{"ha":1010,"x_min":72,"x_max":938,"o":"m 246 0 q 119 49 167 0 q 72 174 72 97 l 72 835 q 119 960 72 911 q 246 1010 167 1010 l 763 1010 q 890 960 842 1010 q 938 835 938 911 l 938 172 q 923 102 938 133 q 883 48 908 71 q 823 13 857 25 q 750 0 789 0 l 647 0 l 647 -133 l 360 -133 l 360 0 l 246 0 m 572 269 q 610 280 600 269 q 619 318 619 290 l 619 693 q 609 732 619 722 q 571 742 599 742 l 436 742 q 398 732 407 742 q 389 694 389 722 l 389 318 q 398 279 389 289 q 436 269 407 269 l 572 269 z "},"r":{"ha":989,"x_min":72,"x_max":950,"o":"m 443 313 l 401 313 l 401 0 l 72 0 l 72 1010 l 694 1010 q 869 957 814 1010 q 924 785 924 904 l 924 519 q 914 458 924 488 q 885 407 904 429 q 838 372 867 385 q 774 358 810 358 q 824 331 806 351 q 853 276 842 311 l 950 0 l 596 0 l 504 267 q 481 301 496 289 q 443 313 467 313 m 396 542 l 519 542 q 592 558 574 542 q 610 614 610 574 l 610 694 q 553 754 610 754 l 396 754 l 396 542 z "},"s":{"ha":928,"x_min":69,"x_max":858,"o":"m 139 0 l 83 269 l 507 269 q 522 274 518 269 q 526 290 526 278 l 526 360 q 504 383 526 383 l 279 383 q 176 393 217 383 q 113 426 136 403 q 79 488 89 449 q 69 589 69 528 l 69 792 q 81 896 69 854 q 118 963 92 938 q 187 999 144 988 q 290 1010 229 1010 l 793 1010 l 849 740 l 400 740 q 385 736 389 740 q 382 719 382 732 l 382 642 q 386 625 382 631 q 403 619 390 619 l 647 619 q 749 610 708 619 q 813 578 789 601 q 848 514 838 554 q 858 413 858 474 l 858 213 q 847 110 858 151 q 809 45 835 69 q 741 10 783 21 q 638 0 699 0 l 139 0 z "},"t":{"ha":906,"x_min":35,"x_max":871,"o":"m 92 1010 l 814 1010 l 871 740 l 624 740 l 624 0 l 282 0 l 282 740 l 35 740 l 92 1010 z "},"u":{"ha":983,"x_min":72,"x_max":911,"o":"m 299 0 q 193 8 236 0 q 123 37 150 15 q 84 97 96 58 q 72 199 72 136 l 72 1010 l 388 1010 l 388 317 q 399 279 388 289 q 438 269 410 269 l 546 269 q 585 279 576 269 q 594 317 594 289 l 594 1010 l 911 1010 l 911 199 q 899 97 911 136 q 859 37 886 58 q 789 8 832 15 q 683 0 746 0 l 299 0 z "},"v":{"ha":1054,"x_min":42,"x_max":1013,"o":"m 314 0 l 42 1010 l 382 1010 l 531 314 l 681 1010 l 1013 1010 l 742 0 l 314 0 z "},"w":{"ha":1418,"x_min":42,"x_max":1376,"o":"m 251 0 l 42 1010 l 376 1010 l 460 449 l 597 1003 l 818 1003 l 957 449 l 1039 1010 l 1376 1010 l 1164 0 l 821 0 l 708 488 l 597 0 l 251 0 z "},"x":{"ha":978,"x_min":35,"x_max":943,"o":"m 394 0 l 35 0 l 236 492 l 38 1010 l 389 1010 l 489 644 l 588 1010 l 939 1010 l 740 492 l 943 0 l 581 0 l 489 321 l 394 0 z "},"y":{"ha":1054,"x_min":28,"x_max":1026,"o":"m 410 1010 l 535 638 l 646 1010 l 1026 1010 l 704 325 l 704 0 l 354 0 l 354 325 l 28 1010 l 410 1010 z "},"z":{"ha":865,"x_min":7,"x_max":858,"o":"m 750 0 l 7 0 l 376 743 l 53 743 l 107 1010 l 858 1010 l 504 269 l 806 269 l 750 0 z "}}}
